<?xml version="1.0" standalone="no"?>
<!DOCTYPE svg PUBLIC "-//W3C//DTD SVG 20010904//EN"
 "http://www.w3.org/TR/2001/REC-SVG-20010904/DTD/svg10.dtd">
<svg version="1.0" xmlns="http://www.w3.org/2000/svg"
 width="1280.000000pt" height="640.000000pt" viewBox="0 0 1280.000000 640.000000"
 preserveAspectRatio="xMidYMid meet">
<metadata>
Created by potrace 1.15, written by Peter Selinger 2001-2017
</metadata>
<g transform="translate(0.000000,640.000000) scale(0.100000,-0.100000)"
fill="#e91e63" stroke="none">
<path d="M2578 6003 c-29 -7 -21 -19 45 -62 74 -48 92 -51 101 -15 14 53 -70
97 -146 77z"/>
<path d="M2260 5981 c-169 -47 -350 -140 -350 -180 0 -43 71 -31 143 23 47 36
143 77 279 121 65 21 115 41 112 46 -9 15 -115 9 -184 -10z"/>
<path d="M2974 5931 c3 -4 26 -14 50 -21 64 -18 88 -43 80 -84 -5 -31 -3 -34
27 -45 43 -15 99 -4 99 18 0 27 -66 97 -113 120 -43 21 -154 30 -143 12z"/>
<path d="M1520 5468 c-18 -47 -25 -330 -11 -400 12 -56 42 -108 63 -108 14 0
5 476 -10 513 -15 36 -27 34 -42 -5z"/>
<path d="M1290 5419 c21 -56 46 -89 67 -89 30 0 11 64 -35 113 -42 45 -55 35
-32 -24z"/>
<path d="M990 5411 c0 -20 113 -116 178 -150 60 -32 -15 75 -91 130 -38 28
-87 39 -87 20z"/>
<path d="M10075 5341 c-38 -23 -80 -69 -72 -77 10 -10 94 25 124 50 47 41 4
62 -52 27z"/>
<path d="M9660 5340 c0 -12 119 -90 137 -90 17 0 46 47 40 64 -10 26 -177 51
-177 26z"/>
<path d="M821 5274 c44 -48 189 -105 189 -75 0 29 -132 101 -184 101 l-29 0
24 -26z"/>
<path d="M10312 5284 c-33 -23 -26 -58 12 -62 34 -4 109 22 127 44 10 13 10
17 -2 25 -24 15 -112 10 -137 -7z"/>
<path d="M2352 5219 c-68 -33 -194 -149 -207 -188 -13 -41 15 -56 112 -60 151
-6 279 32 303 90 19 44 -1 98 -50 143 -22 20 -46 36 -54 36 -8 0 -21 2 -28 5
-8 3 -42 -9 -76 -26z m124 -103 c18 -14 18 -15 -10 -45 -38 -40 -66 -49 -82
-26 -14 19 -9 40 14 68 18 21 51 22 78 3z"/>
<path d="M3455 5226 c-18 -13 -18 -14 3 -25 33 -17 122 -11 122 9 0 10 -56 30
-85 30 -11 0 -30 -6 -40 -14z"/>
<path d="M1687 5180 c-3 -19 -8 -70 -11 -114 -8 -111 -22 -149 -67 -186 -21
-17 -56 -56 -77 -88 -50 -73 -154 -254 -149 -258 2 -2 35 5 73 16 38 11 107
23 154 26 l86 7 47 -41 c26 -23 68 -55 92 -72 101 -69 271 -109 386 -91 35 6
67 11 71 11 16 0 68 54 68 71 0 24 -6 24 -92 -2 -130 -40 -232 -9 -276 83 -12
25 -24 75 -28 118 -10 116 -36 172 -113 249 -79 79 -115 139 -140 235 -17 68
-18 69 -24 36z m121 -355 c26 -7 44 -37 36 -59 -14 -37 -120 -59 -178 -36 -51
19 -24 69 51 95 37 14 44 14 91 0z"/>
<path d="M698 5183 c-25 -7 -22 -15 15 -40 113 -75 137 -80 137 -28 0 25 -6
39 -22 49 -25 16 -103 27 -130 19z"/>
<path d="M570 5062 c0 -29 131 -102 183 -102 36 0 34 13 -4 41 -61 43 -179 83
-179 61z"/>
<path d="M9277 5023 c-48 -34 -119 -128 -162 -214 -48 -94 -125 -161 -274
-238 -130 -68 -168 -103 -157 -146 8 -30 66 -52 165 -60 41 -3 93 -14 115 -24
51 -22 109 -86 126 -136 12 -37 9 -134 -6 -197 -11 -46 14 -34 93 45 78 78 91
111 53 135 -23 14 -27 71 -10 118 18 46 7 57 -36 39 -21 -8 -39 -13 -42 -11
-2 3 1 28 8 56 11 45 10 54 -3 68 -19 18 -92 30 -189 31 -38 1 -68 5 -68 10 0
5 31 27 69 49 79 48 159 130 229 237 61 92 136 238 131 254 -3 7 -19 0 -42
-16z"/>
<path d="M10715 4990 c-13 -21 8 -30 65 -30 62 0 83 12 51 29 -25 14 -108 14
-116 1z"/>
<path d="M6385 4843 c-262 -30 -465 -75 -625 -138 -251 -99 -405 -202 -596
-397 -129 -131 -192 -215 -248 -331 -65 -131 -80 -220 -73 -412 10 -258 76
-459 224 -683 98 -149 224 -268 450 -430 34 -24 69 -60 82 -83 28 -49 30 -94
17 -404 -6 -151 -5 -240 3 -315 63 -547 329 -956 731 -1126 152 -64 260 -91
260 -66 0 9 -31 24 -145 68 -90 35 -151 71 -250 149 -215 168 -412 433 -464
626 -49 180 -73 550 -52 789 21 226 39 290 118 427 l25 42 101 -90 c99 -88
199 -149 242 -149 57 0 110 -90 147 -252 18 -76 22 -125 22 -265 1 -151 3
-174 19 -190 15 -15 45 -19 205 -24 206 -7 293 -26 352 -75 60 -51 72 -100 45
-188 -28 -92 -14 -178 38 -235 30 -32 94 -61 138 -61 20 0 66 -9 102 -20 51
-16 79 -33 136 -84 97 -87 116 -92 401 -89 l225 3 -107 -105 c-96 -93 -118
-110 -219 -159 -83 -41 -145 -63 -245 -87 -74 -18 -132 -34 -130 -36 5 -6 242
26 291 38 66 18 168 60 200 84 83 61 176 90 346 105 189 16 397 82 613 193
201 103 304 219 431 482 69 143 95 215 124 351 40 185 56 199 231 198 145 0
188 -13 192 -57 6 -62 71 -69 375 -40 277 27 840 24 1173 -5 332 -30 311 -24
258 -69 -97 -82 -163 -124 -226 -144 -63 -20 -89 -22 -442 -23 -354 -1 -377
-2 -415 -21 -30 -15 -41 -27 -43 -48 -3 -23 2 -30 30 -41 18 -7 71 -16 117
-20 47 -3 89 -10 94 -15 36 -36 -98 -80 -410 -136 -193 -34 -229 -47 -278
-102 -22 -25 -64 -59 -94 -77 -94 -54 -85 -60 85 -53 82 3 309 22 504 43 195
20 409 37 475 38 140 1 155 -4 209 -85 41 -62 119 -129 246 -214 93 -62 251
-145 277 -145 64 0 -93 176 -218 245 -46 24 -54 26 -76 14 -23 -12 -27 -11
-49 14 -13 16 -49 70 -79 121 -94 161 -114 170 -390 181 -87 4 -168 11 -178
17 -18 9 -18 11 -2 28 23 25 121 57 219 71 120 18 102 27 -229 115 -88 23
-153 43 -145 43 8 1 101 -5 205 -13 422 -32 585 -29 663 12 20 10 52 27 71 37
46 24 66 11 65 -42 0 -30 -10 -52 -41 -94 -22 -30 -52 -77 -66 -104 -30 -61
-70 -190 -65 -207 3 -7 36 41 75 107 99 167 113 183 248 286 137 105 281 222
438 356 105 91 148 115 172 97 54 -40 67 -46 90 -40 33 8 52 48 39 83 -13 37
-71 56 -154 50 -98 -7 -148 -31 -170 -82 -21 -48 -121 -142 -262 -246 -106
-78 -211 -136 -216 -119 -11 33 163 219 248 265 44 23 66 29 113 28 31 -1 57
2 57 7 0 17 -46 63 -76 76 -36 15 -63 9 -182 -41 -110 -46 -232 -68 -382 -69
-178 -1 -197 9 -319 164 -10 14 -22 23 -25 20 -3 -3 4 -39 14 -80 11 -41 20
-88 20 -105 0 -28 -8 -22 -120 95 -65 69 -119 120 -120 113 0 -6 11 -35 25
-65 26 -56 32 -102 14 -113 -16 -11 -66 13 -180 87 -114 74 -135 81 -125 46
25 -88 14 -109 -68 -133 -124 -35 -483 -69 -626 -58 l-89 6 92 31 c51 17 92
36 92 41 0 13 -91 23 -220 24 -109 1 -265 18 -303 32 -21 8 -23 14 -18 44 6
30 4 36 -16 44 -13 5 -30 17 -39 27 -30 34 -86 157 -132 291 -156 448 -330
750 -556 965 -143 137 -237 193 -476 287 -114 45 -233 95 -264 111 -68 34
-118 86 -126 132 -3 18 -5 125 -3 238 l3 205 38 -100 c66 -171 99 -245 108
-245 14 0 10 149 -6 210 -61 230 -281 422 -614 535 -230 78 -481 116 -761 114
-102 -1 -198 -4 -215 -6z m453 -83 c192 -20 237 -51 138 -98 -33 -16 -46 -26
-39 -33 6 -6 86 -14 179 -19 280 -15 388 -31 456 -65 37 -18 47 -30 68 -82 31
-75 46 -93 77 -93 23 0 25 3 20 33 -3 17 -8 42 -12 55 -6 18 -4 21 9 16 38
-15 55 -211 37 -434 -19 -230 -33 -257 -121 -240 -150 30 -232 -5 -335 -141
-38 -52 -59 -109 -39 -109 21 0 104 74 168 148 l76 89 307 -105 c170 -57 336
-114 371 -125 34 -12 62 -24 62 -28 0 -4 -226 -9 -502 -12 -508 -5 -624 -12
-641 -43 -14 -24 -96 -60 -282 -124 -97 -33 -208 -76 -247 -96 -91 -46 -160
-111 -183 -172 -10 -26 -29 -59 -43 -74 -50 -54 -136 -45 -192 18 -62 71 -36
163 105 373 89 135 144 245 145 293 0 46 37 77 105 89 155 26 211 79 236 223
20 115 -7 227 -61 260 -45 26 -40 60 31 186 35 63 59 117 57 130 -3 21 -4 21
-44 -8 -42 -31 -154 -171 -181 -228 -22 -45 -11 -75 42 -116 74 -58 90 -84 90
-149 0 -45 -5 -63 -29 -98 -36 -52 -123 -115 -236 -171 -103 -51 -150 -85
-150 -109 0 -10 14 -30 30 -44 31 -28 37 -55 20 -87 -5 -10 -46 -60 -90 -111
-89 -105 -141 -200 -166 -304 -36 -155 8 -255 110 -255 51 0 56 -30 27 -183
-11 -56 -23 -136 -28 -177 -7 -64 -11 -75 -28 -78 -11 -1 -81 27 -154 63 -175
84 -186 85 -261 4 -53 -58 -59 -61 -91 -55 -45 8 -193 106 -294 193 -181 157
-330 385 -403 613 -44 138 -56 230 -49 373 9 187 45 281 173 452 262 351 522
522 913 600 279 55 625 78 849 55z m1211 -1291 c139 -17 191 -51 140 -90 -13
-10 -72 -35 -132 -55 -59 -21 -113 -44 -120 -52 -11 -13 -4 -14 55 -8 37 3
100 18 140 32 174 61 195 64 284 40 166 -44 320 -198 430 -430 113 -239 112
-404 -4 -661 -59 -132 -85 -228 -84 -315 3 -166 -62 -314 -198 -451 -96 -96
-177 -143 -270 -155 -74 -9 -131 -41 -231 -130 -107 -95 -166 -130 -258 -150
-134 -30 -425 -6 -439 36 -14 40 -64 56 -220 68 -152 12 -155 17 -80 147 48
84 56 121 35 162 -25 47 -166 173 -225 201 -58 26 -60 26 -170 -13 -55 -19
-93 -26 -153 -26 -43 0 -83 3 -89 6 -16 10 -11 46 11 95 25 55 39 198 28 295
-11 100 -11 214 1 257 6 20 26 60 46 89 19 29 38 57 41 62 8 13 -10 2 -72 -44
-65 -49 -103 -63 -122 -47 -24 19 -8 80 51 203 93 194 261 427 440 612 155
161 236 218 378 261 63 20 290 58 388 65 106 8 322 6 399 -4z m-1229 -229 c0
-6 -44 -77 -98 -158 -54 -81 -136 -210 -182 -287 -158 -265 -226 -355 -266
-355 -50 0 -33 56 106 350 50 106 113 237 140 291 l50 98 107 35 c114 37 143
42 143 26z m2116 -287 c124 -170 309 -662 346 -920 20 -141 -20 -327 -123
-572 -98 -232 -175 -344 -299 -435 -248 -182 -487 -286 -656 -286 -98 0 -117
16 -108 93 6 50 5 53 -20 65 -15 7 -55 12 -89 13 -111 1 -113 9 -14 72 48 32
125 92 171 136 96 90 164 127 262 143 108 16 172 58 252 163 96 127 154 289
166 468 8 116 23 163 63 200 47 43 59 69 79 167 13 68 16 119 11 269 -6 223
-20 285 -101 451 -54 113 -55 114 -20 75 19 -22 55 -68 80 -102z m1644 -1702
c0 -25 -297 -109 -417 -118 -82 -7 -98 7 -38 33 134 56 455 116 455 85z
m-2863 -302 c26 -10 27 -12 8 -19 -26 -11 -124 -11 -150 0 -19 8 -19 8 5 18
34 14 102 15 137 1z"/>
<path d="M7500 3244 c-14 -3 -36 -7 -50 -11 -25 -6 -25 -6 5 -13 38 -9 230
-10 270 -1 26 6 28 7 10 14 -23 10 -199 18 -235 11z"/>
<path d="M7237 3130 c-65 -71 -128 -192 -108 -204 12 -8 85 72 121 131 64 106
56 150 -13 73z"/>
<path d="M7094 2759 c-6 -8 -19 -29 -28 -47 -42 -82 -143 -163 -259 -207 -102
-38 -119 -47 -105 -57 21 -13 80 -9 139 8 161 47 300 192 273 286 -7 25 -11
28 -20 17z"/>
<path d="M502 4822 c-47 -14 -26 -27 47 -30 92 -4 119 5 76 24 -32 14 -85 16
-123 6z"/>
<path d="M3543 4820 c-46 -19 -23 -30 62 -30 86 0 109 11 59 30 -31 12 -91 12
-121 0z"/>
<path d="M9550 4812 c-49 -25 -76 -74 -64 -121 7 -29 18 -40 52 -58 90 -45
241 -39 264 12 16 37 1 89 -37 126 -59 58 -148 75 -215 41z m159 -67 c35 -40
38 -57 15 -75 -40 -34 -96 28 -75 83 14 35 23 34 60 -8z"/>
<path d="M370 4699 c-20 -8 -22 -12 -10 -19 19 -12 141 -12 160 0 37 23 -96
40 -150 19z"/>
<path d="M10891 4637 c-6 -8 -8 -17 -4 -20 9 -10 131 -8 137 2 16 25 -112 43
-133 18z"/>
<path d="M11061 4514 c-121 -61 -165 -94 -123 -94 47 1 165 65 247 134 49 41
13 30 -124 -40z"/>
<path d="M11425 4521 c-121 -59 -179 -101 -139 -101 49 1 244 110 269 150 11
18 -8 11 -130 -49z"/>
<path d="M295 4475 c-5 -2 -23 -6 -38 -9 -53 -12 -16 -26 69 -26 74 0 101 8
77 23 -12 7 -96 17 -108 12z"/>
<path d="M3518 4464 c-58 -31 -17 -71 61 -59 50 7 141 43 141 55 0 25 -159 28
-202 4z"/>
<path d="M11696 4459 c-51 -40 -54 -89 -5 -89 38 0 101 55 97 84 -4 31 -56 33
-92 5z"/>
<path d="M11852 4355 c-18 -8 -35 -21 -38 -30 -9 -22 14 -45 45 -45 32 0 101
31 119 52 11 14 8 17 -19 27 -42 14 -67 13 -107 -4z"/>
<path d="M3570 4290 c-32 -20 16 -35 98 -32 38 2 41 15 7 30 -31 14 -84 15
-105 2z"/>
<path d="M243 4273 c-46 -16 -93 -63 -93 -94 0 -21 20 -25 53 -8 26 13 117
100 117 111 0 12 -29 8 -77 -9z"/>
<path d="M12174 4239 c-73 -13 -174 -66 -174 -91 0 -25 222 43 249 76 15 18
-19 25 -75 15z"/>
<path d="M267 4046 c-137 -139 -157 -205 -25 -78 69 65 128 136 128 154 0 22
-29 1 -103 -76z"/>
<path d="M12325 4058 c-32 -11 -75 -46 -75 -60 0 -23 147 9 170 37 10 12 8 16
-15 25 -31 12 -41 12 -80 -2z"/>
<path d="M3450 3921 c21 -74 64 -133 84 -114 17 17 3 57 -35 98 -48 52 -61 56
-49 16z"/>
<path d="M323 3905 c-80 -37 -66 -81 17 -56 35 10 80 51 80 72 0 16 -45 9 -97
-16z"/>
<path d="M9083 3885 c-27 -19 -32 -72 -8 -81 30 -12 113 61 93 82 -14 14 -66
13 -85 -1z"/>
<path d="M12421 3881 c-27 -17 1 -31 65 -31 35 0 64 4 64 8 0 25 -99 42 -129
23z"/>
<path d="M800 3824 c0 -119 100 -194 388 -288 61 -21 117 -36 124 -34 17 6
-96 93 -160 124 -29 14 -81 30 -114 36 -50 9 -70 18 -105 51 -25 23 -59 65
-76 96 -43 72 -57 76 -57 15z"/>
<path d="M393 3761 c-61 -38 -69 -91 -12 -91 37 0 103 59 97 87 -5 25 -47 27
-85 4z"/>
<path d="M3276 3765 c-14 -38 52 -99 101 -93 38 4 40 30 6 68 -34 38 -96 52
-107 25z"/>
<path d="M9089 3669 c-25 -27 -29 -39 -27 -73 4 -54 26 -54 55 -1 26 48 33 96
15 102 -7 3 -26 -10 -43 -28z"/>
<path d="M1625 3629 c-53 -18 -268 -130 -262 -136 6 -5 294 65 330 80 42 18
50 49 18 67 -24 12 -14 13 -86 -11z"/>
<path d="M3203 3624 c-9 -24 7 -45 68 -86 105 -72 121 -50 31 42 -59 61 -88
73 -99 44z"/>
<path d="M488 3568 c-42 -35 -60 -94 -39 -127 13 -21 34 -2 60 54 33 71 23
108 -21 73z"/>
<path d="M9112 3455 c-60 -73 -111 -195 -82 -195 27 0 124 173 118 211 -3 22
-5 21 -36 -16z"/>
<path d="M3150 3468 c0 -7 13 -38 28 -68 19 -39 34 -56 50 -58 40 -6 25 46
-31 106 -33 34 -47 40 -47 20z"/>
<path d="M12560 3468 c-24 -10 -24 -10 -5 -18 28 -12 137 -12 155 0 37 23 -98
40 -150 18z"/>
<path d="M10126 3438 c-8 -32 -6 -119 4 -143 7 -18 9 -18 20 10 6 17 10 54 8
83 -5 60 -22 87 -32 50z"/>
<path d="M571 3395 c-30 -34 -60 -109 -48 -121 7 -7 68 39 116 89 39 42 36 67
-8 67 -21 0 -38 -10 -60 -35z"/>
<path d="M12650 3296 c0 -19 135 -105 147 -93 10 11 -30 69 -60 87 -37 23 -87
27 -87 6z"/>
<path d="M639 3247 c-55 -49 -81 -92 -77 -129 8 -81 102 -21 128 81 7 25 14
54 17 64 7 28 -28 20 -68 -16z"/>
<path d="M2905 3248 c-15 -12 -34 -36 -41 -54 -16 -39 -19 -104 -4 -104 6 0
10 4 10 10 0 5 13 25 30 43 30 35 87 57 145 57 36 0 28 20 -21 47 -49 29 -84
29 -119 1z"/>
<path d="M10301 3231 c-6 -11 -12 -37 -12 -58 -1 -21 -4 -51 -8 -68 l-6 -30
-35 47 c-48 64 -79 76 -66 25 9 -38 82 -113 173 -178 47 -33 87 -59 89 -57 11
12 -31 229 -55 278 -29 61 -61 77 -80 41z"/>
<path d="M9096 3207 c-13 -13 -28 -40 -31 -59 -9 -45 -2 -123 10 -123 16 0 53
82 60 136 9 65 -4 81 -39 46z"/>
<path d="M12599 3106 c25 -27 111 -70 159 -81 25 -5 32 -3 32 9 0 31 -121 95
-179 96 l-34 0 22 -24z"/>
<path d="M783 3034 c-89 -66 -140 -143 -71 -108 36 19 138 117 138 133 0 19
-17 12 -67 -25z"/>
<path d="M9184 3005 c-7 -50 3 -135 15 -135 12 0 21 38 21 90 0 92 -24 122
-36 45z"/>
<path d="M1564 2978 c-25 -23 -73 -82 -106 -131 -87 -126 -169 -187 -252 -187
-51 0 -52 -16 -3 -29 129 -33 151 -118 35 -135 -97 -15 -141 33 -192 207 -43
150 -97 227 -157 227 -36 0 -66 -32 -83 -90 -16 -53 -11 -65 13 -30 29 44 73
90 85 90 57 0 84 -137 122 -604 13 -165 13 -201 2 -211 -32 -30 -278 -168
-350 -195 -44 -17 -116 -35 -161 -41 -45 -5 -106 -17 -136 -25 -75 -22 -196
-84 -259 -134 -58 -46 -127 -143 -118 -167 7 -18 -13 -21 336 63 300 73 426
109 436 126 13 20 -173 1 -306 -32 -157 -39 -260 -50 -260 -27 0 21 62 43 319
116 318 91 405 138 535 291 57 68 88 94 132 116 52 25 59 26 83 13 18 -10 29
-27 34 -54 21 -97 30 -120 74 -166 61 -66 137 -101 232 -107 101 -7 92 9 -45
76 -187 92 -189 96 -189 342 1 252 27 335 123 389 40 22 55 23 225 26 191 3
265 13 407 59 l75 24 -270 0 c-374 0 -388 6 -325 144 49 105 24 130 -56 56z
m-356 -563 c29 -13 34 -18 22 -25 -20 -13 -101 -12 -120 0 -13 9 -12 12 4 25
25 19 47 19 94 0z"/>
<path d="M2785 2927 c-7 -90 -21 -130 -46 -135 -28 -5 -78 47 -121 125 -22 41
-42 72 -45 69 -2 -2 12 -55 32 -118 20 -62 39 -138 42 -169 5 -52 4 -58 -19
-73 -16 -10 -57 -18 -119 -22 -102 -6 -144 -12 -136 -20 3 -3 31 -12 64 -20
75 -20 103 -38 103 -69 0 -32 -36 -56 -192 -126 -129 -58 -221 -115 -232 -145
-3 -9 -6 -29 -6 -45 0 -28 2 -29 43 -29 26 0 91 17 157 40 176 63 366 107 688
160 40 7 72 13 70 15 -2 1 -88 -1 -193 -5 -205 -8 -261 -5 -269 16 -3 7 12 34
33 61 53 67 68 99 82 179 7 38 17 75 22 82 7 9 30 12 71 10 60 -3 61 -3 64 24
6 49 -58 278 -78 278 -4 0 -11 -38 -15 -83z"/>
<path d="M10584 2909 c17 -84 102 -188 218 -265 138 -92 271 -124 543 -130
118 -3 184 -1 175 4 -43 27 -210 55 -330 57 -113 1 -131 4 -184 28 -111 51
-221 133 -317 237 -51 55 -97 100 -102 100 -5 0 -7 -14 -3 -31z"/>
<path d="M11920 2892 c-138 -32 -124 -39 73 -41 70 0 127 -4 127 -9 0 -4 -12
-13 -27 -19 -71 -32 -252 -139 -305 -181 -51 -39 -88 -85 -88 -107 0 -3 15 -5
33 -5 69 0 233 99 349 208 83 80 118 134 101 160 -17 28 -128 25 -263 -6z"/>
<path d="M12590 2886 c0 -19 135 -105 147 -93 10 11 -30 69 -60 87 -37 23 -87
27 -87 6z"/>
<path d="M2408 2866 c-51 -18 -88 -44 -88 -60 0 -35 82 -21 124 21 43 43 26
61 -36 39z"/>
<path d="M9360 2783 c0 -82 36 -154 112 -225 34 -32 67 -58 75 -58 42 0 -19
139 -72 164 -45 22 -71 56 -90 122 -8 30 -18 54 -20 54 -3 0 -5 -26 -5 -57z"/>
<path d="M9683 2780 c-52 -21 -51 -93 2 -106 34 -8 53 0 67 31 19 43 -26 91
-69 75z"/>
<path d="M3610 2642 c-30 -1 -140 -14 -245 -28 -196 -26 -386 -35 -465 -21
l-45 8 35 -31 c41 -36 188 -109 280 -139 36 -11 135 -39 220 -61 163 -42 260
-76 260 -91 0 -15 -154 -10 -330 11 -90 10 -166 17 -168 16 -1 -2 51 -15 115
-30 194 -44 365 -103 432 -148 45 -30 67 -39 92 -36 132 13 -39 209 -261 299
-107 43 -119 50 -126 71 -16 51 58 77 242 88 144 8 180 19 164 49 -5 10 -17
22 -27 26 -27 12 -112 20 -173 17z m-339 -113 c32 -17 11 -29 -51 -29 -57 0
-78 9 -65 30 8 13 91 13 116 -1z"/>
<path d="M9660 2514 c0 -64 203 -348 314 -439 57 -47 157 -80 283 -96 131 -16
158 -4 87 36 -183 104 -289 183 -439 325 -174 167 -245 217 -245 174z"/>
<path d="M12540 2507 c0 -38 85 -82 126 -67 22 9 24 13 13 26 -33 40 -139 71
-139 41z"/>
<path d="M12474 2106 c-7 -28 18 -120 41 -153 40 -56 66 -5 41 79 -26 90 -68
128 -82 74z"/>
<path d="M1380 1808 c0 -38 30 -92 59 -108 26 -13 51 -61 51 -95 0 -30 -25
-33 -69 -10 -16 8 -31 11 -35 8 -3 -4 17 -49 45 -102 109 -203 221 -351 268
-351 29 0 25 12 -33 87 -24 32 -46 69 -48 83 -8 61 93 16 127 -57 14 -29 16
-50 10 -107 -10 -96 -7 -133 12 -163 17 -25 94 -69 128 -73 55 -6 57 7 16 94
-17 34 -35 83 -41 110 -15 66 -31 95 -119 213 -68 92 -216 342 -207 350 10 10
592 -68 734 -98 51 -11 101 -19 110 -17 22 5 -112 96 -218 149 -159 80 -360
143 -360 113 0 -5 16 -23 37 -40 20 -17 33 -35 30 -41 -12 -19 -133 -26 -227
-14 -108 14 -163 33 -212 71 -47 38 -58 38 -58 -2z m185 -301 c57 -57 58 -117
0 -103 -32 8 -65 60 -65 104 0 42 22 42 65 -1z"/>
<path d="M966 1781 c-17 -7 -15 -10 15 -28 41 -25 302 -123 327 -123 26 0 -51
63 -128 104 -36 19 -92 39 -124 45 -67 12 -64 12 -90 2z"/>
<path d="M6945 432 c-27 -1 -61 -5 -75 -9 l-25 -6 25 -7 c14 -5 75 -8 135 -8
61 0 121 3 135 8 l25 7 -25 6 c-34 8 -134 13 -195 9z"/>
</g>
</svg>
