<?xml version="1.0" standalone="no"?>
<!DOCTYPE svg PUBLIC "-//W3C//DTD SVG 20010904//EN"
 "http://www.w3.org/TR/2001/REC-SVG-20010904/DTD/svg10.dtd">
<svg version="1.0" xmlns="http://www.w3.org/2000/svg"
 width="1236.000000pt" height="1280.000000pt" viewBox="0 0 1236.000000 1280.000000"
 preserveAspectRatio="xMidYMid meet">
<metadata>
Created by potrace 1.15, written by Peter Selinger 2001-2017
</metadata>
<g transform="translate(0.000000,1280.000000) scale(0.100000,-0.100000)"
fill="#e91e63" stroke="none">
<path d="M10494 12778 c-11 -13 -27 -38 -34 -56 -7 -18 -21 -37 -31 -43 -16
-8 -25 -3 -50 26 -54 61 -131 68 -216 19 -66 -38 -91 -106 -59 -162 11 -20 9
-30 -12 -73 -15 -30 -31 -49 -42 -49 -9 0 -29 -9 -43 -20 -33 -26 -92 -133
-76 -139 6 -2 26 -16 44 -32 18 -16 37 -29 42 -29 13 0 33 -45 33 -74 0 -20
-8 -24 -77 -39 -141 -30 -298 -87 -463 -166 -465 -222 -918 -662 -1326 -1287
-44 -66 -84 -119 -91 -117 -14 5 -52 -48 -210 -293 -210 -326 -323 -460 -471
-558 -174 -116 -481 -177 -887 -177 -245 0 -376 9 -765 57 -157 19 -339 41
-405 49 -66 8 -174 19 -240 26 -86 8 -129 16 -151 30 -63 39 -148 59 -304 74
-250 24 -434 75 -1035 283 -180 62 -205 74 -251 115 -27 25 -82 60 -121 77
-50 22 -92 51 -135 94 -131 127 -228 207 -245 204 -38 -7 -23 -37 54 -104 43
-38 106 -97 142 -131 l63 -62 -4 -96 c-5 -111 3 -121 75 -86 59 29 75 27 138
-17 71 -50 77 -70 55 -182 -11 -50 -16 -94 -12 -98 4 -3 100 -10 214 -14 114
-4 231 -10 260 -14 49 -5 51 -7 39 -25 -8 -10 -41 -33 -75 -49 -33 -17 -67
-42 -76 -55 -11 -16 -26 -25 -44 -25 -69 -1 -153 -67 -167 -132 -4 -17 -20
-45 -36 -61 -42 -41 -40 -86 6 -126 22 -19 35 -39 35 -54 0 -31 18 -45 77 -62
26 -7 56 -16 66 -20 15 -6 17 -4 11 19 -11 47 17 66 98 66 65 0 68 1 68 24 0
36 -23 50 -71 42 -23 -4 -54 -13 -70 -22 -18 -9 -29 -10 -29 -4 0 6 7 13 15
16 9 4 20 15 26 26 22 41 -41 67 -74 30 -9 -10 -29 -19 -44 -20 -15 -1 -33 -9
-39 -17 -9 -12 -14 -11 -32 8 -25 26 -28 52 -9 64 32 21 88 33 153 33 83 0
179 18 194 35 7 9 6 16 -4 24 -11 9 -29 10 -72 2 -32 -6 -89 -11 -126 -11 -64
0 -68 1 -59 19 18 32 87 53 151 46 43 -5 59 -3 68 8 16 19 7 42 -20 54 -20 9
-18 11 24 31 76 37 148 53 274 59 113 5 123 4 142 -15 11 -11 22 -33 24 -49 4
-37 22 -32 28 9 6 39 37 58 97 58 23 0 48 7 56 15 26 26 329 -8 419 -47 26
-11 48 -23 48 -27 0 -3 -13 -15 -29 -25 -43 -29 -56 -55 -38 -74 14 -13 21
-10 66 28 l50 42 133 -11 c73 -7 300 -33 503 -57 504 -62 654 -74 905 -74 301
0 498 25 717 92 84 25 123 32 175 30 79 -3 88 1 188 81 80 64 124 87 165 87
22 0 25 4 25 38 0 71 43 138 171 267 l119 121 0 66 c0 69 17 112 88 224 18 28
34 63 36 78 4 36 109 197 256 395 335 449 669 750 1050 950 148 77 260 119
452 170 98 26 317 29 394 6 27 -8 50 -15 51 -15 1 0 13 24 26 54 29 63 56 77
86 47 17 -17 34 -21 90 -21 38 0 81 -4 96 -10 32 -12 55 -64 55 -124 0 -41 4
-48 57 -96 31 -29 67 -57 79 -62 27 -12 30 -23 49 -157 9 -64 25 -126 41 -160
l26 -56 19 38 c30 57 63 52 184 -28 94 -62 141 -81 181 -73 14 2 41 -25 102
-107 94 -126 149 -229 158 -297 l7 -48 -34 0 c-59 0 -98 17 -181 79 -84 64
-141 86 -195 78 -18 -3 -36 -1 -39 5 -10 15 -73 40 -124 49 -57 10 -216 -1
-236 -15 -9 -7 -12 -18 -8 -29 5 -15 21 -17 128 -16 148 1 206 -16 206 -61 l0
-27 -147 -6 c-82 -3 -224 -17 -318 -32 -260 -40 -383 -55 -446 -55 l-57 0 -18
53 c-31 90 -14 240 37 335 24 46 24 69 -1 132 -11 28 -20 53 -20 55 0 7 76
-37 139 -79 43 -29 62 -36 101 -36 27 0 61 5 76 10 15 6 48 13 73 16 25 3 68
12 94 20 43 14 50 14 72 0 31 -20 49 -20 69 0 22 21 6 48 -42 73 -22 11 -45
35 -57 56 -19 37 -93 101 -158 138 -26 15 -47 17 -107 14 -61 -4 -102 -15
-217 -61 -99 -39 -156 -56 -187 -56 -44 0 -46 -1 -46 -28 0 -16 8 -36 18 -44
22 -20 82 -31 101 -19 12 7 20 -3 38 -47 29 -71 29 -103 1 -148 -23 -35 -23
-35 -88 -32 -57 3 -72 8 -125 46 -36 25 -77 44 -101 48 -38 6 -43 4 -63 -24
-44 -62 -54 -110 -54 -242 1 -105 5 -139 27 -214 15 -49 39 -114 54 -145 29
-60 100 -141 123 -141 8 0 32 -9 54 -20 22 -11 56 -20 77 -20 27 0 38 -4 38
-15 0 -32 62 -136 108 -182 52 -51 96 -83 264 -187 104 -65 108 -66 136 -52
40 21 101 90 147 168 22 37 43 68 46 68 3 0 11 -42 18 -92 21 -161 95 -340
230 -561 66 -107 148 -268 176 -340 22 -61 24 -72 14 -114 -24 -91 25 -244
105 -331 36 -39 40 -49 40 -94 0 -58 -21 -82 -66 -75 -33 4 -32 13 -13 -114
15 -101 43 -175 70 -186 47 -17 -12 -460 -96 -716 -40 -123 -52 -138 -44 -57
12 117 12 115 -12 118 -24 4 -37 -27 -48 -113 -4 -27 -9 -58 -11 -67 -4 -13 5
-24 29 -38 31 -18 34 -24 28 -48 -7 -25 -12 -27 -68 -30 l-61 -3 -16 -63 c-37
-151 -90 -307 -131 -391 -41 -84 -115 -185 -136 -185 -5 0 -9 18 -9 41 0 46
-14 79 -35 79 -21 0 -27 33 -14 85 8 31 10 87 6 163 -8 149 -11 160 -44 154
-52 -10 -57 52 -12 138 32 62 35 93 8 98 -12 2 -27 -19 -53 -74 -20 -42 -36
-81 -36 -86 0 -6 -10 -20 -23 -32 -12 -11 -36 -52 -52 -91 -18 -45 -54 -100
-98 -153 -53 -64 -67 -86 -58 -95 13 -12 52 24 129 118 32 38 34 39 48 21 7
-11 14 -28 14 -38 0 -10 5 -18 11 -18 6 0 -12 -25 -40 -56 -86 -94 -96 -135
-41 -164 27 -14 49 -1 96 55 39 48 64 58 64 25 0 -29 28 -93 46 -107 9 -7 18
-31 21 -55 3 -40 1 -45 -31 -69 -49 -36 -104 -104 -160 -200 -43 -72 -47 -82
-33 -96 8 -8 20 -12 26 -9 5 4 34 46 63 94 55 93 158 206 166 184 11 -33 -53
-164 -146 -302 -92 -137 -102 -147 -155 -172 -31 -15 -57 -32 -57 -38 0 -22
34 -22 81 -2 27 11 49 19 49 17 0 -1 -15 -18 -32 -38 -18 -20 -55 -76 -82
-126 -27 -49 -61 -105 -77 -123 l-28 -33 -1 46 c0 25 -6 54 -14 65 -14 18 -15
18 -25 -9 -6 -16 -11 -35 -11 -42 0 -26 -47 -120 -71 -142 -28 -26 -94 -55
-103 -46 -3 4 -6 21 -6 39 0 22 18 59 61 124 119 182 138 230 91 230 -17 0
-59 -59 -171 -244 -23 -38 -47 -64 -66 -72 -16 -7 -58 -35 -93 -63 -35 -28
-68 -51 -73 -51 -5 0 -9 11 -9 25 0 31 55 93 121 135 50 33 67 70 31 70 -37 0
-160 -99 -188 -152 -8 -15 -14 -50 -14 -78 0 -84 -41 -160 -87 -160 -34 0 -30
-32 10 -77 19 -21 37 -46 40 -56 11 -30 -9 -62 -54 -82 -36 -17 -43 -17 -47
-5 -3 8 -20 30 -39 49 l-34 34 -92 -6 c-51 -4 -108 -10 -128 -13 -36 -6 -37
-5 -64 44 -27 50 -29 51 -79 54 l-51 3 3 41 c2 28 -2 45 -13 54 -26 22 -49 0
-57 -55 -4 -27 -16 -57 -29 -71 -27 -29 -48 -106 -42 -156 3 -23 18 -52 39
-76 28 -33 34 -48 34 -86 l0 -46 -59 0 c-41 0 -62 5 -71 15 -17 21 -54 15 -58
-9 -2 -10 4 -30 15 -45 23 -33 19 -87 -8 -101 -10 -6 -45 -15 -76 -21 -79 -15
-112 -34 -119 -68 -6 -27 -11 -29 -63 -36 -98 -11 -131 -23 -142 -52 -8 -20
-6 -30 5 -42 14 -13 18 -13 38 6 17 16 44 24 103 31 44 5 82 6 85 2 3 -4 34
-13 69 -20 59 -12 121 -49 121 -71 0 -5 -36 -9 -81 -9 -56 0 -78 -3 -73 -11 5
-8 1 -8 -14 0 -11 6 -28 11 -36 11 -20 0 -21 -29 -1 -36 9 -4 15 -19 15 -35 0
-28 -1 -29 -50 -29 -82 0 -200 -28 -280 -67 -89 -43 -217 -165 -265 -254 -16
-30 -60 -96 -97 -145 -73 -95 -153 -245 -267 -495 -115 -254 -187 -375 -280
-471 -49 -52 -78 -63 -66 -25 4 12 10 41 12 65 4 34 2 42 -11 42 -9 0 -18 -12
-22 -27 -3 -16 -10 -39 -14 -53 -5 -14 -10 -38 -12 -55 -3 -26 -13 -36 -77
-72 -85 -48 -145 -61 -203 -44 -51 16 -44 32 20 50 36 10 70 30 112 66 34 29
74 55 90 59 31 6 43 39 17 49 -24 9 -90 -21 -131 -61 -23 -22 -56 -47 -75 -57
l-34 -17 7 26 c3 14 9 37 12 51 5 18 2 25 -9 25 -20 0 -36 -21 -56 -77 -12
-35 -23 -49 -39 -51 -28 -4 -28 1 0 116 16 68 19 95 11 103 -25 25 -41 -1 -63
-98 -34 -149 -58 -195 -76 -141 -3 12 -29 46 -57 75 -45 48 -59 56 -136 79
-64 19 -93 33 -113 56 -30 35 -61 35 -66 -1 -6 -36 49 -86 116 -106 133 -39
127 -34 130 -96 l3 -56 -55 10 c-68 12 -98 1 -117 -42 -17 -37 -22 -38 -37 -7
-8 19 -7 36 5 75 9 28 14 53 11 57 -4 3 -33 8 -65 11 -58 5 -59 5 -92 -32 -18
-20 -35 -34 -38 -31 -13 13 -3 360 12 419 8 29 -15 67 -40 67 -20 0 -43 -33
-50 -72 -5 -24 -14 -39 -26 -43 -10 -3 -34 -33 -54 -65 -46 -75 -77 -100 -126
-100 -54 0 -69 8 -69 38 0 18 15 41 51 75 69 65 102 140 107 238 l4 76 -89 -4
c-178 -7 -226 -30 -254 -123 -12 -39 -13 -40 -49 -34 -27 4 -40 2 -50 -11 -18
-22 -2 -49 33 -53 15 -2 29 -11 32 -22 3 -10 30 -30 60 -44 53 -25 55 -27 55
-67 0 -140 -187 -158 -315 -31 -37 37 -37 37 -33 107 4 51 14 89 37 140 18 39
39 87 46 108 13 35 13 37 -6 37 -26 0 -75 50 -113 116 l-28 49 -28 -75 c-44
-122 -94 -221 -144 -288 -26 -34 -51 -62 -55 -62 -5 0 -4 20 2 45 7 31 7 49 0
56 -17 17 -42 -1 -48 -35 -4 -19 -15 -36 -28 -41 -12 -6 -30 -32 -42 -62 -25
-63 -51 -93 -82 -93 -35 0 -30 35 22 133 25 47 45 95 45 105 0 11 9 39 20 63
26 58 26 89 0 89 -11 0 -23 -8 -26 -17 -3 -10 -15 -39 -26 -66 -17 -36 -27
-47 -44 -47 -26 0 -27 -14 17 132 14 44 7 68 -20 68 -14 0 -23 -9 -27 -27 -3
-16 -15 -52 -25 -81 -10 -29 -19 -61 -19 -72 0 -21 -46 -80 -62 -80 -16 0 -2
106 24 186 12 38 52 118 89 179 63 105 65 110 43 113 -41 6 -45 23 -22 95 l22
67 56 0 c73 0 138 -32 162 -80 14 -28 33 -41 105 -72 102 -44 148 -47 148 -9
0 22 -9 28 -64 48 -92 33 -126 55 -128 84 -7 72 -2 133 17 186 38 103 39 108
23 142 -15 30 -14 33 10 69 59 84 72 95 106 87 48 -10 148 4 174 25 38 32 10
45 -95 45 -91 0 -91 0 -100 28 -9 25 -5 33 32 73 27 29 40 52 38 66 -4 30 -24
33 -45 7 -10 -12 -33 -36 -52 -53 -33 -30 -33 -32 -27 -94 l7 -62 -51 -61
c-27 -33 -53 -71 -56 -84 -6 -23 -31 -37 -149 -81 -58 -22 -118 -78 -136 -128
-11 -30 -18 -36 -41 -36 l-29 0 62 82 c34 46 85 107 113 135 37 39 47 56 39
64 -18 18 -65 -22 -135 -114 -104 -139 -110 -144 -143 -136 -17 4 -46 14 -66
22 -20 9 -45 14 -56 11 -32 -9 -73 23 -73 56 0 39 -25 63 -51 49 -16 -8 -19
-19 -17 -67 l2 -58 -64 -62 c-50 -48 -71 -62 -90 -60 -25 3 -30 12 -47 92 -4
22 -12 41 -18 42 -5 2 -26 -23 -46 -55 -47 -75 -107 -116 -205 -141 -111 -29
-116 -28 -99 14 13 30 13 35 -2 48 -14 11 -17 11 -21 -1 -3 -8 -20 -30 -38
-50 -28 -30 -35 -33 -43 -21 -7 10 -5 21 9 35 24 26 25 46 4 106 -23 62 -13
107 37 166 44 51 89 136 89 166 0 35 127 283 154 300 14 9 27 17 29 17 2 0 21
-25 41 -55 40 -61 52 -68 144 -85 64 -11 82 -8 82 15 0 16 -16 22 -81 31 -55
7 -100 38 -124 83 -14 29 -14 49 4 121 17 71 14 100 -9 100 -19 0 -27 -18 -45
-107 -5 -23 -13 -33 -33 -38 -56 -14 -90 -53 -142 -160 -33 -71 -58 -110 -77
-122 -15 -9 -43 -30 -62 -46 -29 -25 -39 -28 -75 -22 -22 3 -78 24 -123 46
l-83 40 16 24 c13 20 15 44 11 134 l-6 109 63 74 c91 106 82 103 150 59 57
-36 60 -37 105 -25 39 9 46 15 46 35 0 22 -4 24 -43 21 -38 -2 -78 12 -121 44
-6 5 118 151 143 168 32 20 35 61 6 76 -36 19 -87 -21 -186 -145 -42 -53 -174
-196 -212 -229 -13 -12 -61 -58 -107 -104 -51 -50 -91 -82 -104 -82 -24 0 -25
4 -11 31 8 13 7 31 -1 59 -11 37 -10 41 20 76 49 56 57 78 37 109 -24 37 -64
33 -106 -10 -23 -24 -43 -35 -62 -35 -15 0 -28 4 -28 9 0 15 34 75 47 84 32
20 44 39 32 53 -9 11 -17 10 -48 -5 l-37 -19 4 33 c3 24 17 46 49 76 30 28 43
48 40 60 -5 20 49 76 143 146 97 72 249 139 358 158 48 8 74 28 65 51 -5 13
-16 15 -64 10 -152 -17 -358 -122 -486 -246 -34 -33 -61 -50 -77 -50 l-25 0
31 65 c27 59 29 69 18 95 -17 42 -44 39 -125 -15 -72 -47 -129 -65 -147 -47
-15 15 -12 88 4 110 7 10 29 32 48 49 30 26 45 32 105 36 84 6 105 13 105 37
0 25 -31 33 -66 19 -16 -6 -46 -15 -66 -19 -35 -7 -38 -6 -38 17 0 18 7 25 29
29 32 7 49 32 27 40 -8 3 -31 1 -51 -5 -31 -8 -40 -7 -56 7 -24 23 -15 62 15
62 11 0 43 7 70 15 27 8 63 15 79 15 17 0 39 8 50 17 10 10 38 22 61 28 35 9
44 16 60 52 16 35 27 46 65 59 25 10 53 23 62 31 8 7 29 13 46 13 16 0 63 11
103 25 83 28 122 31 139 11 10 -12 -5 -20 -96 -49 -59 -20 -125 -38 -145 -42
-20 -4 -39 -13 -42 -21 -14 -36 53 -27 228 33 55 18 101 33 102 33 2 0 -1 -13
-7 -28 -14 -39 0 -69 61 -138 29 -31 65 -77 81 -102 16 -25 29 -41 29 -35 0 6
21 21 47 33 l47 22 143 -31 c160 -35 274 -40 363 -16 39 10 108 15 238 15 113
0 182 4 182 10 0 6 16 4 38 -4 114 -43 339 -54 567 -26 149 18 383 18 465 1
36 -7 102 -31 147 -53 102 -49 235 -78 368 -79 115 -1 163 9 289 56 50 19 132
43 181 54 145 32 221 66 269 120 11 11 25 21 32 21 33 0 118 37 220 96 61 35
131 73 156 84 55 24 72 42 63 69 -15 47 -65 33 -250 -74 -137 -78 -203 -104
-215 -85 -5 8 -4 22 1 33 7 13 7 23 -2 33 -17 20 -32 17 -58 -12 -19 -22 -27
-24 -67 -18 -44 6 -46 6 -42 -17 2 -16 11 -25 26 -27 12 -2 26 -12 32 -22 17
-31 -22 -49 -195 -92 -170 -42 -198 -44 -236 -20 l-32 20 29 13 c32 16 38 42
11 47 -10 2 -55 -8 -100 -22 -45 -14 -120 -30 -167 -36 -95 -12 -185 -35 -213
-55 -15 -11 -28 -8 -85 15 -147 62 -325 74 -647 45 -240 -22 -387 -18 -489 12
-18 5 -18 6 1 24 24 24 148 68 214 76 50 6 67 27 33 40 -25 9 -142 -16 -209
-46 l-60 -27 -34 23 c-44 30 -57 29 -76 -6 -23 -45 -49 -48 -92 -12 -49 41
-84 40 -158 -5 -141 -85 -269 -98 -488 -49 -113 26 -127 31 -127 50 0 15 9 24
32 30 18 6 33 17 33 25 0 16 -20 18 -70 6 l-30 -7 3 59 4 59 66 12 c97 19 250
96 382 192 269 195 352 242 479 269 80 17 105 37 85 68 -26 38 -194 2 -320
-69 -28 -16 -133 -87 -234 -159 -194 -139 -288 -190 -387 -214 -106 -24 -252
10 -351 83 -41 30 -42 33 -42 86 0 30 4 55 10 55 5 0 25 14 43 30 28 25 44 30
83 30 78 0 176 19 212 42 47 29 66 61 52 87 -14 28 -36 26 -83 -6 -28 -20 -55
-28 -98 -31 l-59 -4 0 30 c0 40 -11 46 -56 27 -20 -8 -45 -15 -55 -15 -26 0
-25 37 3 59 23 19 18 41 -11 41 -10 0 -30 -9 -45 -21 -19 -15 -34 -19 -56 -14
-44 10 -46 24 -6 40 43 18 52 31 35 51 -16 20 -63 12 -101 -16 l-27 -20 -52
55 c-28 30 -67 60 -85 67 -43 15 -43 24 2 32 29 6 35 11 32 29 -3 23 -12 25
-65 13 -36 -8 -46 3 -57 65 -6 36 -6 37 38 48 55 14 102 51 93 74 -8 21 -35
22 -57 2 -9 -8 -31 -18 -48 -21 -29 -6 -32 -4 -32 18 0 18 7 26 32 33 53 16
42 40 -17 40 -56 0 -55 -1 -34 82 13 48 7 73 -16 73 -23 0 -44 -58 -56 -153
-9 -68 -7 -97 7 -167 9 -47 25 -101 34 -120 10 -19 18 -50 18 -68 1 -59 45
-115 170 -215 64 -52 133 -112 152 -133 34 -38 35 -41 35 -121 l0 -82 -55 -32
c-30 -17 -75 -45 -99 -61 -24 -16 -60 -32 -80 -35 -20 -3 -43 -11 -51 -18 -48
-40 -79 -47 -155 -34 -41 6 -83 9 -95 6 -11 -3 -20 -1 -20 4 0 4 -19 13 -42
19 -85 23 -126 106 -78 158 11 12 20 24 20 27 0 11 -60 -5 -139 -37 -40 -16
-93 -29 -117 -30 -42 0 -94 22 -94 41 0 14 69 51 96 51 35 0 93 26 100 45 11
27 -11 39 -37 21 -13 -9 -38 -16 -56 -16 -29 0 -33 3 -33 25 0 19 5 25 23 25
13 0 32 6 43 14 31 24 7 50 -51 56 -58 6 -75 30 -20 30 19 0 46 7 58 15 13 8
32 16 42 18 11 2 27 7 35 10 15 6 142 40 191 51 32 7 43 30 28 58 -9 17 -17
19 -57 13 -26 -3 -69 -13 -96 -21 -68 -19 -73 -18 -79 15 -9 45 -37 47 -115 7
-37 -20 -76 -36 -85 -36 -21 0 -22 26 -2 64 8 15 15 30 15 32 0 15 -67 -2
-129 -31 -69 -33 -161 -49 -161 -27 0 4 23 31 51 60 80 82 57 128 -43 81 -42
-20 -51 -21 -58 -9 -7 10 -5 19 5 26 8 6 15 16 15 23 0 6 20 20 45 31 24 10
79 42 121 71 l77 52 63 -12 c42 -7 71 -8 88 -1 17 6 35 6 52 0 83 -32 209 18
188 74 -9 24 -37 28 -78 11 -38 -16 -90 -13 -101 5 -3 5 21 23 53 39 65 33 81
56 57 80 -12 13 -19 13 -33 3 -9 -6 -41 -23 -71 -37 -60 -28 -97 -25 -103 9
-4 20 1 23 61 34 72 14 114 43 93 64 -9 9 -17 9 -34 0 -28 -14 -104 -31 -138
-32 -24 0 -23 2 15 35 22 19 60 42 85 50 25 9 58 23 73 31 16 8 37 14 47 14
31 0 50 11 50 29 0 24 -20 41 -47 41 -20 0 -22 2 -12 19 7 10 9 26 6 35 -9 24
-46 20 -58 -7 -8 -17 -25 -27 -59 -36 -27 -7 -54 -19 -61 -27 -8 -9 -32 -14
-75 -14 l-63 0 29 62 c30 63 41 74 90 88 24 7 29 4 39 -16 9 -20 18 -24 57
-24 73 0 227 88 240 137 3 11 17 31 30 44 13 12 24 31 24 41 0 28 -28 33 -53
10 -14 -12 -41 -21 -73 -24 l-50 -5 -27 49 c-21 38 -25 53 -17 68 16 30 12 52
-17 82 -30 32 -32 30 72 58 58 16 60 18 75 63 10 29 23 50 38 57 16 7 22 17
20 33 -2 18 -8 21 -33 18 -16 -2 -61 -4 -100 -6 -96 -4 -92 -3 -99 -21 -9 -23
11 -44 43 -45 14 0 35 -4 46 -8 15 -6 3 -13 -52 -29 -39 -12 -85 -22 -102 -22
l-31 0 0 64 0 63 58 16 c42 12 309 47 357 47 3 0 5 11 5 23 0 14 -14 37 -35
56 -46 42 -46 62 0 54 28 -4 35 -2 35 10 0 9 -7 20 -17 25 -32 19 26 58 136
92 56 17 111 40 122 51 10 10 32 19 49 19 43 0 80 20 86 47 8 32 -11 51 -54
56 l-37 3 33 9 c46 11 40 41 -8 37 -18 -1 -39 -7 -46 -13 -7 -6 -13 -6 -16 -1
-2 6 -23 6 -55 -1 -34 -7 -68 -7 -99 -1 l-47 9 -23 79 c-34 119 -38 164 -19
219 19 56 13 85 -22 98 -52 20 -92 -35 -101 -136 -3 -45 2 -86 22 -162 14 -56
26 -122 26 -146 l0 -45 -72 -25 c-191 -67 -358 -84 -521 -53 -152 29 -201 82
-227 246 -6 41 -10 102 -8 134 l3 60 85 49 c149 86 213 115 285 130 82 16 97
40 29 45 -61 4 -152 -30 -291 -110 l-122 -70 -48 39 c-67 56 -91 67 -109 52
-20 -16 -17 -48 5 -57 10 -4 39 -26 63 -48 l45 -41 6 -104 c11 -165 39 -244
110 -306 18 -16 47 -35 65 -42 19 -8 32 -21 32 -31 0 -29 33 -49 115 -70 82
-21 122 -41 132 -66 3 -8 -2 -34 -11 -57 -25 -66 -22 -245 4 -298 12 -22 18
-44 15 -50 -15 -23 17 -79 62 -108 52 -35 106 -112 83 -119 -8 -3 -24 -15 -36
-27 -13 -13 -40 -25 -64 -28 -23 -3 -62 -16 -87 -29 -47 -24 -42 -17 -119
-203 -30 -71 -28 -141 3 -184 12 -16 23 -52 28 -87 l7 -61 -84 -54 c-112 -74
-133 -83 -161 -65 -12 8 -53 18 -92 21 -38 4 -83 14 -99 22 l-28 15 20 21 c36
38 42 71 35 186 -5 100 -4 112 15 145 l21 36 -77 0 c-82 0 -149 14 -223 47
-55 25 -179 139 -163 150 7 5 20 26 30 48 23 48 55 58 71 22 17 -37 78 -61
167 -65 79 -4 179 11 203 30 8 6 30 6 65 -2 69 -16 103 -11 103 15 0 14 -10
21 -40 28 -188 41 -292 74 -450 147 -118 54 -190 79 -439 150 -133 38 -288 85
-345 105 -190 66 -339 155 -414 247 -39 48 -89 147 -81 160 3 5 23 17 45 28
51 26 72 21 249 -66 74 -36 158 -75 187 -85 l52 -20 31 23 c26 19 46 23 116
25 47 2 94 8 105 13 20 11 39 6 39 -10 0 -5 -14 -16 -30 -25 -17 -9 -30 -24
-30 -34 0 -14 10 -20 48 -25 35 -4 64 -18 102 -46 30 -22 58 -41 64 -42 6 0
22 -2 36 -4 14 -1 55 -14 93 -28 37 -14 79 -26 93 -26 14 0 23 -4 20 -8 -10
-16 138 -65 211 -70 l73 -5 0 42 c0 44 21 64 43 42 27 -27 26 -6 -5 51 -54
101 -160 171 -312 205 -69 15 -141 40 -199 69 -18 9 -61 14 -117 14 -75 0
-104 5 -187 34 -171 59 -597 245 -618 270 -5 6 -37 25 -69 41 -45 23 -93 64
-192 165 -170 173 -217 232 -240 300 -22 66 -40 90 -69 90 -50 0 -56 -34 -22
-136 13 -38 27 -94 30 -126 17 -145 104 -244 263 -298 32 -11 60 -19 61 -18 1
2 43 -19 92 -47 l90 -50 1 -51 c0 -50 -1 -51 -42 -70 -71 -32 -126 -86 -203
-203 -41 -62 -75 -118 -75 -124 0 -21 85 -126 139 -172 28 -24 119 -92 202
-151 171 -122 249 -201 292 -293 27 -56 30 -75 30 -150 0 -64 -7 -106 -26
-164 l-25 -78 31 -36 c17 -19 66 -62 110 -95 101 -77 117 -102 110 -178 -9
-91 17 -151 96 -231 76 -75 169 -126 346 -188 105 -37 110 -40 119 -72 96
-376 308 -622 620 -718 79 -24 135 -26 191 -6 60 22 92 19 123 -12 l27 -28
-78 -5 -78 -5 -4 -60 c-2 -33 -10 -80 -19 -104 -9 -24 -16 -63 -16 -86 0 -40
3 -45 48 -73 26 -17 89 -50 140 -73 50 -23 92 -45 92 -48 0 -3 -20 -7 -45 -7
-74 -2 -101 -19 -116 -72 -8 -26 -14 -76 -14 -112 1 -82 20 -119 114 -225 142
-158 199 -263 312 -562 100 -267 175 -379 284 -424 l55 -23 0 -48 0 -48 67
-34 c129 -65 226 -143 459 -368 l91 -88 63 0 c118 0 232 -47 327 -133 58 -53
59 -54 161 -70 186 -30 265 -63 687 -288 66 -35 147 -75 180 -89 l60 -26 27
-99 c29 -110 58 -199 141 -440 65 -187 108 -333 136 -463 23 -107 20 -123 -44
-185 -47 -46 -119 -79 -265 -123 -69 -20 -148 -47 -176 -59 -55 -24 -134 -89
-134 -110 0 -7 -13 -18 -29 -25 -36 -14 -45 -43 -22 -72 13 -16 24 -19 43 -15
15 4 75 9 135 12 109 4 126 8 458 95 258 69 425 67 583 -5 l54 -25 -22 -30
c-12 -16 -54 -60 -93 -97 -40 -38 -93 -89 -118 -115 -49 -51 -98 -132 -86
-145 8 -7 57 5 193 48 l72 22 52 -22 52 -22 57 39 c129 90 237 123 407 123
127 0 211 -11 344 -47 148 -40 526 -183 604 -229 23 -13 69 -28 103 -34 34 -5
76 -18 95 -27 22 -13 58 -19 110 -20 68 -1 83 -5 123 -32 49 -32 79 -33 96 0
14 27 3 54 -36 83 -25 20 -34 36 -39 70 -4 24 -18 65 -31 91 -13 27 -23 49
-22 51 2 1 41 -4 88 -12 115 -19 385 -37 472 -30 88 6 465 32 600 41 111 7
110 5 60 92 -37 65 -92 97 -171 99 -52 1 -67 5 -79 22 -8 12 -42 40 -76 63
-49 34 -58 43 -42 46 11 2 29 12 40 21 11 10 41 32 68 50 57 39 62 69 17 102
-39 29 -43 43 -25 86 11 27 12 39 4 49 -18 22 -27 17 -53 -34 -14 -27 -36 -53
-50 -60 -15 -7 -49 -47 -80 -94 -29 -46 -60 -89 -69 -97 -10 -7 -17 -19 -17
-25 -1 -6 -19 -25 -42 -43 -34 -25 -46 -29 -65 -22 -13 5 -72 8 -131 7 -74 -1
-128 4 -176 17 -53 13 -94 16 -173 13 -97 -4 -107 -3 -156 22 -29 15 -63 29
-74 32 -15 4 -25 19 -33 49 -34 127 -140 167 -361 138 -122 -16 -236 -14 -258
5 -9 7 -69 39 -133 71 -69 33 -118 63 -118 72 0 8 -40 107 -89 221 -102 238
-177 435 -226 591 -41 133 -100 369 -93 376 3 3 79 21 169 39 90 19 191 44
223 56 64 24 146 96 146 128 0 10 18 36 41 57 98 95 187 236 291 459 201 434
259 533 395 671 126 129 217 168 543 235 356 74 424 103 815 354 138 89 259
156 328 181 58 22 119 88 354 380 201 250 257 308 367 375 48 29 98 66 112 83
70 83 108 189 159 439 42 205 63 283 117 443 39 113 197 506 258 641 15 33 30
76 34 96 3 20 17 63 31 96 78 193 141 492 155 737 5 88 14 184 20 214 13 61 2
172 -30 301 -10 41 -21 104 -25 140 -9 94 -32 175 -72 259 -19 40 -44 101 -55
135 -31 94 -76 186 -182 370 -120 209 -162 292 -192 379 -27 80 -47 204 -42
267 l3 45 67 27 c37 16 94 31 127 35 60 6 61 6 76 47 23 62 96 269 102 289 4
13 16 17 52 17 72 0 157 -26 257 -80 l92 -48 12 26 c18 38 26 162 11 162 -7 0
-9 9 -5 24 10 41 -14 138 -56 221 -33 68 -154 240 -236 337 -65 79 -88 256
-44 354 11 27 43 70 71 95 l49 47 -50 95 c-48 91 -50 99 -50 176 0 94 -8 103
-76 88 -36 -8 -48 -8 -59 4 -12 12 -12 20 1 57 19 58 10 105 -30 147 -34 35
-87 52 -131 41 -20 -5 -25 -12 -25 -40 0 -84 -86 -196 -123 -160 -11 12 22 76
77 148 69 92 75 104 82 175 7 58 6 59 -24 75 -71 37 -158 29 -234 -22 -48 -31
-117 -130 -125 -177 -5 -32 -9 -35 -38 -35 l-33 0 -4 78 c-6 121 -53 191 -138
207 -29 5 -39 2 -56 -17z m-154 -247 c0 -23 -24 -72 -39 -81 -10 -5 -42 -12
-71 -16 l-54 -7 54 56 c41 42 62 57 82 57 16 0 28 -4 28 -9z m524 -6 c11 -8
29 -15 39 -15 16 0 17 -3 7 -15 -24 -30 -80 -15 -80 21 0 28 7 29 34 9z m-432
-188 c21 -23 38 -44 38 -47 0 -3 -21 -14 -48 -24 -70 -29 -93 -46 -108 -83
-18 -43 -41 -42 -84 2 -25 25 -43 35 -65 35 -24 0 -35 6 -43 26 -10 21 -8 34
9 75 21 47 23 49 63 50 22 1 55 5 71 9 17 5 52 6 79 3 42 -5 56 -12 88 -46z
m138 23 c34 -18 50 -130 20 -130 -16 0 -70 58 -81 87 -8 22 -7 30 7 40 21 16
30 16 54 3z m338 -415 c16 -14 33 -36 36 -50 6 -25 -7 -65 -22 -65 -17 0 -112
93 -112 110 0 37 57 40 98 5z m-273 -488 c-33 -11 -39 -5 -31 29 l7 27 25 -24
25 -24 -26 -8z m-537 -552 c26 -56 9 -81 -32 -50 -11 8 -32 15 -48 15 -35 0
-36 13 -2 39 37 29 68 27 82 -4z m938 -120 c7 -17 -14 -75 -27 -75 -17 0 -20
21 -8 55 14 37 26 44 35 20z m-926 -159 c0 -31 -13 -46 -39 -46 -42 0 -53 12
-35 38 18 25 74 31 74 8z m537 -24 c21 -13 45 -102 38 -139 -7 -39 -45 -83
-71 -83 -15 0 -16 7 -9 58 11 75 11 111 2 145 -6 22 -4 27 10 27 10 0 23 -4
30 -8z m273 -31 c0 -28 -44 -63 -75 -59 l-27 3 38 47 c29 35 41 44 51 36 7 -6
13 -18 13 -27z m-9040 -2096 c18 -9 27 -21 24 -29 -3 -8 9 -30 27 -50 17 -20
29 -39 26 -42 -10 -10 -134 51 -129 64 2 7 -3 24 -12 37 -9 13 -16 31 -16 39
0 17 20 12 80 -19z m966 -1050 c-31 -25 -58 -45 -60 -45 -11 0 -15 53 -6 70 9
16 21 20 66 20 l55 0 -55 -45z m-712 -418 c16 -12 16 -14 2 -26 -23 -19 -60
-10 -64 17 -3 17 1 22 20 22 13 0 32 -6 42 -13z m1303 -917 c32 0 25 -22 -11
-31 -37 -10 -87 8 -79 28 4 11 14 13 36 9 16 -3 41 -6 54 -6z m-61 -84 c22
-17 24 -16 -81 -40 -38 -9 -80 -19 -92 -22 -19 -5 -23 -2 -23 19 0 30 16 37
81 37 27 0 49 5 49 10 0 15 43 12 66 -4z m6674 -238 c0 -17 -13 -55 -30 -85
-16 -29 -30 -58 -30 -65 0 -15 -60 -74 -72 -71 -4 2 -22 -6 -40 -17 -42 -26
-45 -25 -62 9 -14 27 -13 33 11 88 21 47 33 63 57 71 17 7 56 32 86 57 65 54
80 56 80 13z m5 -285 c21 -26 21 -27 3 -45 -25 -25 -38 -15 -38 33 0 46 7 48
35 12z m-861 -29 c39 -6 50 -12 63 -38 21 -40 62 -90 80 -96 11 -4 2 -14 -28
-34 -60 -40 -139 -43 -174 -6 -45 48 -54 110 -21 162 12 20 15 21 80 12z m332
-188 c39 -11 40 -12 32 -42 -14 -56 -81 -93 -168 -94 -41 0 -48 3 -64 31 -10
17 -16 32 -14 34 26 27 146 94 158 89 8 -3 33 -11 56 -18z m-196 -270 c0 -19
3 -41 6 -50 5 -13 -1 -16 -31 -16 -26 0 -36 4 -32 13 2 6 10 29 18 50 17 47
39 49 39 3z m-5200 -421 c0 -27 -28 -85 -66 -137 -33 -45 -40 -49 -73 -46 -32
3 -36 6 -33 28 1 14 16 35 32 48 17 13 30 30 30 37 0 8 12 21 28 29 15 8 36
23 46 35 23 25 36 27 36 6z m614 -351 c9 -3 16 -14 16 -24 0 -26 15 -33 83
-41 80 -10 85 -15 76 -93 -10 -84 -50 -161 -137 -267 -37 -46 -78 -99 -91
-116 -25 -37 -62 -43 -95 -18 -11 8 -35 15 -54 15 -30 0 -34 3 -29 23 3 12 8
37 13 56 l7 34 -47 -6 -47 -7 36 64 c19 34 35 76 35 92 0 27 6 32 66 58 78 34
154 100 136 118 -6 6 -28 14 -49 18 l-38 6 48 47 c52 51 49 50 71 41z m1564
-1449 c33 -25 77 -51 97 -58 34 -12 40 -20 69 -93 18 -43 87 -191 153 -329 67
-137 133 -279 148 -315 64 -153 125 -360 140 -477 l7 -52 -74 20 c-210 56
-341 169 -449 389 -74 148 -124 339 -173 660 -9 58 -23 146 -30 195 -8 50 -12
93 -9 98 12 20 65 4 121 -38z m1113 -1282 c27 -16 49 -34 49 -40 0 -7 -12 -20
-27 -30 -16 -9 -30 -18 -32 -20 -2 -1 -7 -19 -10 -39 l-6 -36 -42 31 c-84 61
-91 110 -22 144 42 21 33 22 90 -10z m347 -109 c21 -4 23 -9 20 -71 -3 -65 -4
-67 -33 -75 -18 -5 -51 -4 -80 2 -27 6 -60 13 -72 16 -51 10 -49 99 2 127 23
11 112 12 163 1z m177 -75 c3 -4 3 -19 0 -32 -6 -21 -10 -23 -43 -18 -36 6
-50 25 -39 55 5 13 73 10 82 -5z m155 -38 c31 -14 50 -17 71 -11 33 10 33 9
23 -77 l-7 -53 -77 0 c-75 0 -78 1 -88 28 -16 39 -17 52 -9 95 9 43 24 46 87
18z m-1172 -38 c-3 -27 -6 -28 -65 -31 -51 -2 -63 0 -63 12 0 24 41 46 88 46
41 0 43 -1 40 -27z m1411 -34 l44 -19 -39 -35 c-51 -45 -74 -52 -91 -29 -7 10
-11 25 -8 32 3 8 5 29 5 48 0 40 4 40 89 3z m-651 -27 c10 -14 10 -19 -3 -28
-13 -10 -21 -7 -40 12 -13 13 -29 24 -35 24 -5 0 -10 5 -10 10 0 16 73 1 88
-18z m1618 -35 c52 -36 51 -65 -1 -59 -19 2 -52 -5 -80 -17 -26 -12 -53 -21
-61 -21 -17 0 -44 39 -44 65 0 30 55 68 91 63 16 -3 29 -1 29 4 0 11 10 6 66
-35z m-650 19 c1 0 5 -20 9 -43 l7 -43 -81 0 c-90 0 -121 17 -121 64 0 22 5
25 43 29 34 3 138 -2 143 -7z m150 -6 c10 0 14 -13 14 -40 0 -35 -3 -40 -23
-40 -37 0 -67 27 -67 62 0 29 2 30 31 24 17 -3 38 -6 45 -6z m-897 -52 c25
-72 -1 -88 -79 -48 -47 24 -68 25 -91 4 -10 -9 -23 -13 -28 -9 -20 12 -11 43
17 63 32 23 59 28 124 24 42 -3 48 -7 57 -34z m1079 0 c3 -27 2 -28 -47 -28
-50 0 -51 1 -51 31 0 30 1 30 48 27 43 -3 47 -5 50 -30z m-752 -179 c12 -12
11 -19 -6 -47 -15 -25 -27 -32 -51 -32 -52 0 -65 13 -61 60 l4 42 50 -4 c27
-3 56 -12 64 -19z m159 -85 c8 -20 15 -47 15 -61 0 -23 -2 -24 -67 -21 -78 3
-87 15 -57 79 15 35 21 39 55 39 35 0 40 -4 54 -36z"/>
<path d="M4667 3977 c-32 -63 -33 -67 -8 -67 21 0 71 57 71 81 0 15 -19 39
-30 39 -4 0 -19 -24 -33 -53z"/>
<path d="M4671 3859 c-41 -50 -31 -72 21 -42 25 15 33 26 33 48 0 42 -16 40
-54 -6z"/>
<path d="M1217 12014 c-69 -16 -105 -34 -152 -76 -48 -42 -88 -102 -111 -164
l-18 -52 -75 -7 c-135 -12 -243 -68 -319 -164 -64 -81 -85 -148 -85 -266 0
-113 18 -177 79 -266 l34 -52 -37 8 c-21 4 -71 9 -112 11 -40 1 -76 5 -79 8
-9 10 -152 7 -152 -3 0 -5 -16 -5 -37 0 -93 20 -153 10 -153 -27 0 -25 30 -42
89 -49 57 -7 61 -9 81 -47 l21 -41 -60 6 c-100 9 -118 -3 -100 -67 22 -79 123
-134 320 -174 79 -16 85 -19 79 -37 -12 -31 -80 -94 -130 -119 -28 -15 -73
-26 -120 -30 -41 -4 -85 -10 -98 -13 -22 -5 -22 -5 7 -39 17 -18 48 -60 70
-92 47 -70 101 -119 139 -128 38 -8 112 -43 129 -60 8 -8 26 -14 39 -14 14 0
42 -11 62 -25 20 -14 42 -25 48 -25 6 0 25 -12 42 -27 16 -16 49 -40 71 -55
70 -47 58 -55 -97 -60 -117 -4 -145 -8 -184 -27 -52 -24 -77 -56 -85 -106 -5
-32 -4 -33 48 -50 30 -10 137 -56 239 -103 102 -46 221 -100 265 -119 88 -38
306 -115 311 -110 2 2 -1 19 -6 38 -15 52 -12 68 15 81 46 21 82 -5 124 -91
42 -86 66 -104 126 -97 38 5 41 3 65 -37 14 -23 27 -45 28 -49 6 -14 -43 -8
-66 8 -31 21 -29 -1 3 -49 27 -39 23 -68 -11 -81 -25 -10 -14 -15 69 -35 75
-18 127 -43 127 -61 0 -5 -11 -17 -23 -27 -24 -17 -23 -17 87 -56 61 -22 138
-44 171 -51 73 -13 185 -73 164 -87 -8 -5 -27 -9 -42 -9 -31 0 -46 -25 -28
-43 7 -7 44 -12 95 -12 78 0 86 -2 143 -37 34 -21 68 -38 76 -38 22 0 39 26
32 49 -7 23 -82 75 -130 91 -21 7 -41 24 -54 45 -11 19 -46 51 -78 72 -32 20
-105 79 -162 131 -110 98 -195 166 -246 196 -31 18 -57 58 -132 206 -50 98
-54 141 -20 191 28 42 87 58 145 41 51 -16 84 6 80 51 -3 27 -10 36 -51 56
-45 22 -52 23 -106 11 -43 -9 -64 -9 -79 -1 -34 18 -62 13 -102 -19 -21 -16
-40 -30 -43 -30 -3 0 -8 17 -11 38 -4 20 -9 45 -12 54 -3 11 5 27 20 41 l25
24 -57 17 c-60 19 -147 60 -155 73 -9 14 77 7 116 -10 78 -34 270 -61 290 -40
14 14 -17 33 -55 33 -50 0 -176 26 -224 46 -53 22 -104 63 -104 84 0 31 65 31
152 -1 43 -15 104 -33 135 -39 32 -7 62 -19 68 -27 10 -13 13 -13 24 0 10 13
9 19 -8 36 -12 12 -33 21 -48 21 -30 0 -223 64 -232 77 -3 5 -21 18 -39 31
l-32 23 -43 -19 c-30 -13 -62 -42 -103 -93 l-61 -74 -74 1 c-83 0 -159 30
-159 62 0 27 270 142 371 158 41 7 62 30 39 44 -24 15 -175 -30 -310 -92 -83
-39 -175 -75 -215 -84 -21 -5 -85 29 -85 45 0 17 99 83 279 185 155 89 176
105 184 133 16 54 3 81 -45 94 -23 6 -67 12 -98 14 -30 1 -80 12 -111 23 -30
12 -104 26 -165 32 -158 16 -173 21 -216 81 -46 62 -54 100 -34 156 11 32 12
44 3 50 -26 16 46 20 118 5 64 -13 86 -13 125 -3 45 12 51 11 102 -15 165 -83
361 -211 676 -442 176 -128 391 -275 441 -302 19 -10 26 -9 38 3 23 23 8 38
-108 115 -59 39 -214 148 -345 242 -286 208 -449 315 -611 405 -100 55 -129
77 -162 119 -77 101 -105 192 -91 296 26 208 219 333 431 279 56 -15 82 -36
167 -138 30 -35 51 -51 68 -51 30 0 97 -59 130 -116 14 -23 45 -93 70 -155 49
-125 86 -189 109 -189 26 0 27 20 1 63 -13 24 -43 90 -66 148 -58 146 -86 193
-144 245 -88 78 -96 88 -121 139 -38 76 -50 157 -35 237 19 108 86 183 153
172 341 -59 607 -268 978 -768 315 -424 350 -467 366 -464 31 6 23 25 -44 114
-38 49 -141 188 -230 309 -88 121 -197 263 -241 315 -102 122 -257 270 -358
342 -135 96 -315 175 -440 193 -27 4 -53 11 -59 15 -5 4 -36 1 -68 -6z m-602
-1454 c50 -6 108 -15 130 -21 l40 -11 -27 -14 c-15 -8 -81 -34 -147 -58 -66
-25 -148 -59 -182 -77 l-61 -33 -18 24 c-18 24 -18 24 19 50 49 36 99 95 107
125 7 29 11 29 139 15z m372 -64 c17 -16 -23 -46 -180 -136 -91 -52 -190 -113
-218 -134 -58 -43 -98 -49 -169 -26 -46 15 -46 17 -22 64 21 44 82 78 262 146
73 27 152 61 174 75 33 21 51 25 93 22 29 -2 56 -7 60 -11z"/>
<path d="M9351 11620 c-32 -29 -39 -54 -20 -65 11 -8 79 53 79 71 0 25 -30 22
-59 -6z"/>
<path d="M1865 11310 c-3 -5 8 -33 25 -63 16 -29 30 -65 30 -78 0 -22 -3 -21
-38 17 -20 22 -50 57 -65 77 -31 41 -69 56 -92 37 -22 -18 -18 -46 8 -72 13
-13 40 -46 60 -73 19 -28 46 -57 59 -63 13 -7 33 -28 45 -47 30 -46 85 -85
146 -106 79 -27 90 -47 98 -189 7 -132 25 -183 72 -210 24 -13 28 -13 42 0 13
14 12 19 -11 52 -31 44 -43 97 -44 196 0 118 -47 196 -123 209 -22 3 -58 20
-81 38 l-41 32 3 66 c2 52 -2 76 -19 109 -34 68 -60 91 -74 68z"/>
<path d="M11180 11261 c0 -46 30 -71 85 -71 38 0 45 3 45 19 0 35 -41 72 -88
78 -42 6 -42 5 -42 -26z"/>
<path d="M9133 11183 c-52 -81 -56 -100 -14 -78 43 22 83 78 79 111 -5 45 -21
37 -65 -33z"/>
<path d="M10240 11142 c0 -28 32 -52 68 -52 25 0 32 4 32 19 0 25 -37 51 -72
51 -21 0 -28 -5 -28 -18z"/>
<path d="M8863 11044 c-21 -54 -23 -79 -3 -35 11 24 19 49 17 54 -2 6 -8 -3
-14 -19z"/>
<path d="M1842 11013 c13 -49 35 -87 60 -102 26 -16 32 -9 22 23 -9 27 -74
115 -86 116 -3 0 -2 -17 4 -37z"/>
<path d="M8578 10888 c-35 -66 -46 -100 -47 -140 -1 -27 3 -38 14 -38 20 0 73
75 86 122 24 92 -13 132 -53 56z"/>
<path d="M8730 10490 c-35 -70 -77 -208 -82 -271 -3 -38 0 -44 16 -44 16 0 22
14 38 84 21 98 42 159 76 219 13 23 21 49 18 57 -11 31 -36 14 -66 -45z"/>
<path d="M8736 10095 c-13 -14 -26 -39 -30 -56 -9 -45 -7 -169 2 -169 4 0 17
7 29 15 26 18 39 61 48 163 6 63 5 72 -9 72 -10 0 -27 -11 -40 -25z"/>
<path d="M2317 10033 c-14 -13 -6 -42 13 -48 10 -3 68 -40 127 -82 59 -42 137
-91 172 -110 61 -32 66 -38 103 -113 43 -89 95 -134 167 -146 44 -7 91 14 91
41 0 22 -29 45 -59 45 -42 0 -92 39 -118 91 l-23 47 26 56 c30 67 27 102 -11
112 -32 8 -50 -7 -75 -62 -10 -24 -24 -44 -30 -44 -20 0 -73 31 -180 105 -89
61 -179 115 -193 115 -2 0 -7 -3 -10 -7z"/>
<path d="M1921 9826 c-9 -10 -7 -19 7 -36 16 -19 22 -21 40 -11 30 16 28 28
-7 45 -24 13 -31 13 -40 2z"/>
<path d="M2102 9818 c-10 -10 -8 -16 9 -29 l22 -16 -37 -40 c-41 -46 -45 -63
-16 -63 12 0 34 -7 50 -15 16 -8 49 -14 73 -14 27 1 53 -5 70 -16 62 -40 183
0 222 75 20 38 19 40 -12 40 -16 0 -48 14 -73 30 -57 38 -100 40 -100 5 0 -26
-26 -46 -50 -37 -8 3 -37 25 -65 49 -52 45 -72 52 -93 31z"/>
<path d="M8429 9799 c-26 -26 -38 -58 -56 -154 -8 -44 -19 -88 -25 -98 -6 -12
-6 -23 3 -33 32 -38 62 5 79 112 6 38 20 87 30 110 11 22 20 47 20 56 0 25
-29 29 -51 7z"/>
<path d="M10743 9545 c-3 -9 0 -42 6 -73 6 -31 12 -82 14 -112 2 -51 4 -55 27
-55 48 0 56 82 21 213 -10 35 -16 42 -37 42 -13 0 -27 -7 -31 -15z"/>
<path d="M5175 9440 c-3 -6 -3 -19 0 -30 7 -23 47 -27 64 -6 9 10 6 17 -13 30
-29 19 -42 20 -51 6z"/>
<path d="M8736 9434 c-10 -27 -7 -61 7 -73 20 -16 27 -4 27 46 0 30 -4 43 -14
43 -8 0 -17 -7 -20 -16z"/>
<path d="M8824 9407 c-11 -30 0 -82 19 -85 16 -3 18 3 15 44 -3 47 -22 70 -34
41z"/>
<path d="M8037 9362 c-28 -29 -27 -42 4 -42 21 0 54 44 44 60 -10 16 -19 12
-48 -18z"/>
<path d="M4890 9336 c0 -20 11 -22 78 -16 78 7 72 24 -10 28 -54 2 -68 0 -68
-12z"/>
<path d="M5423 9279 c-7 -7 -13 -15 -13 -18 0 -4 36 -7 81 -9 74 -3 109 6 109
27 0 13 -165 13 -177 0z"/>
<path d="M8548 9215 c-17 -34 -19 -48 -10 -57 15 -15 40 6 57 46 28 67 -15 77
-47 11z"/>
<path d="M5342 9173 c3 -14 13 -18 48 -18 35 0 45 4 48 18 3 14 -4 17 -48 17
-44 0 -51 -3 -48 -17z"/>
<path d="M5020 9111 c-76 -24 -104 -40 -272 -149 -101 -65 -148 -102 -148
-114 0 -33 33 -19 170 72 153 101 241 145 320 160 58 11 76 22 66 39 -10 16
-73 12 -136 -8z"/>
<path d="M10326 9106 c-9 -14 -60 -58 -113 -98 -97 -72 -125 -108 -84 -108 11
0 22 4 26 9 3 5 40 34 83 64 83 58 146 121 139 140 -7 22 -34 18 -51 -7z"/>
<path d="M7315 9074 c-373 -101 -778 -273 -1175 -499 -199 -113 -322 -194
-317 -208 8 -26 40 -15 154 56 448 279 887 474 1368 608 90 25 106 34 98 55
-7 18 -21 17 -128 -12z"/>
<path d="M7787 9053 c-22 -6 -19 -46 4 -51 16 -3 68 33 59 41 -10 9 -45 14
-63 10z"/>
<path d="M5025 8985 c-129 -77 -175 -112 -175 -136 0 -37 29 -31 123 28 52 32
115 70 141 85 35 21 46 33 46 53 0 38 -32 31 -135 -30z"/>
<path d="M10847 8952 c-36 -39 -39 -92 -5 -92 10 0 48 75 48 95 0 20 -23 19
-43 -3z"/>
<path d="M7777 8929 l-18 -32 42 7 c52 8 59 12 59 37 0 15 -7 19 -32 19 -26 0
-37 -6 -51 -31z"/>
<path d="M5743 8921 c-119 -32 -103 -66 17 -37 37 9 81 16 97 16 36 0 46 9 32
27 -15 17 -69 15 -146 -6z"/>
<path d="M9244 8823 c-82 -124 -112 -189 -95 -206 16 -16 38 -1 44 30 3 16 35
74 72 128 68 102 84 140 68 156 -7 7 -37 -30 -89 -108z"/>
<path d="M7055 8855 c-96 -27 -125 -55 -55 -55 57 0 110 24 110 49 0 12 -1 21
-2 20 -2 0 -25 -7 -53 -14z"/>
<path d="M10666 8845 c-12 -13 -28 -44 -35 -67 -7 -24 -22 -60 -32 -80 -21
-41 -16 -68 12 -68 23 0 44 31 70 105 11 31 27 67 35 80 13 20 13 24 -1 39
-21 21 -22 21 -49 -9z"/>
<path d="M9112 8828 c-5 -7 -20 -33 -32 -58 -23 -46 -67 -100 -82 -100 -4 0
-8 16 -8 35 0 28 -4 35 -20 35 -14 0 -21 -9 -26 -37 -6 -32 -3 -40 20 -60 33
-28 35 -28 76 0 38 25 115 159 106 182 -7 18 -20 19 -34 3z"/>
<path d="M9976 8747 c-41 -35 -45 -67 -8 -67 29 0 97 63 89 83 -10 26 -38 20
-81 -16z"/>
<path d="M11046 8645 c-6 -25 -29 -34 -41 -15 -11 18 -27 10 -20 -10 3 -11 -1
-46 -10 -78 -22 -76 -17 -104 17 -116 23 -8 32 -6 54 15 35 32 63 89 70 143 5
36 3 47 -15 65 -28 28 -47 27 -55 -4z"/>
<path d="M10757 8545 c-22 -15 -37 -34 -37 -46 0 -23 27 -36 43 -20 19 19 25
12 37 -45 15 -71 0 -137 -47 -206 -34 -51 -37 -78 -9 -78 20 0 65 55 89 110
15 33 20 67 21 125 0 68 -4 88 -27 133 -15 28 -28 52 -30 52 -1 0 -19 -11 -40
-25z"/>
<path d="M6783 8535 c-17 -7 -37 -23 -43 -36 -12 -21 -11 -21 16 -15 33 8 68
39 63 54 -3 7 -15 6 -36 -3z"/>
<path d="M2410 8469 c0 -6 16 -29 35 -52 32 -37 61 -89 93 -169 15 -36 32 -36
32 0 0 38 -50 137 -95 190 -35 40 -65 55 -65 31z"/>
<path d="M3553 8422 c-61 -91 -66 -184 -16 -289 32 -69 118 -162 198 -215 60
-39 63 -43 69 -91 20 -149 146 -271 308 -296 73 -12 142 -1 146 22 6 32 -15
45 -64 39 -62 -7 -159 21 -216 63 -55 40 -98 108 -105 166 l-6 42 47 -7 c52
-8 82 -2 90 19 11 30 -22 45 -103 45 -77 0 -79 1 -147 49 -109 76 -173 160
-194 255 -13 60 6 138 46 185 14 17 23 38 20 46 -11 29 -41 15 -73 -33z"/>
<path d="M6596 8429 c-39 -30 -34 -49 9 -39 40 9 85 36 85 50 0 18 -67 10 -94
-11z"/>
<path d="M9352 8416 c-22 -32 -106 -115 -180 -179 -31 -26 -35 -47 -9 -47 40
1 257 226 242 250 -11 18 -30 10 -53 -24z"/>
<path d="M10416 8378 c-3 -7 -7 -38 -11 -68 -8 -73 -124 -370 -159 -409 -14
-15 -14 -20 -3 -29 19 -16 55 -3 63 22 3 11 32 82 64 156 86 201 111 330 67
338 -9 2 -19 -2 -21 -10z"/>
<path d="M11210 8210 c0 -66 3 -82 17 -87 26 -10 53 32 53 84 0 57 -14 83 -45
83 -25 0 -25 -2 -25 -80z"/>
<path d="M4734 8159 c-36 -33 -89 -72 -119 -85 -69 -32 -81 -47 -67 -79 15
-33 48 -32 120 2 55 26 163 118 184 156 11 22 -14 67 -37 67 -9 0 -45 -27 -81
-61z"/>
<path d="M10879 8144 c-12 -26 -24 -65 -27 -87 -4 -33 -18 -52 -96 -128 -92
-90 -113 -101 -136 -74 -7 9 -17 12 -21 8 -10 -10 -46 -154 -54 -218 -4 -27
-18 -66 -31 -86 -26 -37 -43 -109 -28 -109 5 0 27 22 49 50 21 27 41 47 43 45
9 -9 -31 -111 -63 -165 -18 -30 -68 -102 -109 -160 -42 -57 -75 -109 -73 -115
11 -33 41 -7 126 111 106 148 148 227 164 312 9 51 15 61 28 57 27 -9 57 52
70 141 l10 79 62 57 c66 62 77 62 77 -2 0 -41 15 -60 46 -60 38 0 54 26 54 86
0 57 -19 107 -46 122 -15 8 -14 14 1 68 25 88 24 108 -3 112 -18 3 -26 -5 -43
-44z"/>
<path d="M11056 8128 c-2 -7 -7 -56 -10 -108 -3 -52 -8 -104 -12 -116 -7 -25
20 -56 41 -47 22 8 28 45 29 168 1 107 0 110 -22 113 -12 2 -24 -3 -26 -10z"/>
<path d="M9443 8054 c-60 -60 -33 -76 32 -19 33 29 37 36 25 45 -19 13 -19 13
-57 -26z"/>
<path d="M9140 7956 c-6 -8 -21 -16 -33 -18 -12 -2 -23 -11 -25 -20 -3 -14 3
-18 26 -18 38 0 78 31 69 53 -8 21 -21 22 -37 3z"/>
<path d="M9294 7935 c-27 -14 -65 -41 -84 -61 l-35 -37 30 7 c42 10 104 48
139 85 37 38 19 41 -50 6z"/>
<path d="M6943 7632 c-25 -16 -54 -147 -54 -247 -1 -142 41 -295 82 -295 30 0
30 15 3 86 -38 101 -44 240 -15 351 11 45 21 87 21 92 0 12 -24 21 -37 13z"/>
<path d="M11020 7522 c0 -18 -9 -51 -21 -73 -23 -45 -19 -69 9 -69 38 0 56 51
42 114 -12 53 -30 70 -30 28z"/>
<path d="M10127 7513 c-4 -3 -7 -17 -7 -31 0 -14 -9 -40 -21 -59 -21 -34 -20
-63 3 -63 12 1 68 113 68 136 0 7 -7 15 -16 18 -19 7 -19 7 -27 -1z"/>
<path d="M9634 7433 c-20 -32 -52 -78 -70 -102 -38 -49 -44 -81 -15 -81 23 0
154 190 149 216 -6 35 -27 24 -64 -33z"/>
<path d="M10227 7429 c-18 -20 -17 -49 2 -49 15 0 52 42 48 55 -6 18 -31 14
-50 -6z"/>
<path d="M9778 7399 c-22 -23 -23 -49 -3 -49 20 0 57 38 52 53 -6 19 -31 17
-49 -4z"/>
<path d="M4601 7365 c-25 -33 -42 -110 -35 -161 3 -22 15 -67 25 -100 l20 -62
77 -27 c42 -16 88 -36 102 -45 35 -24 88 -40 106 -33 38 14 34 80 -6 90 -20 5
-20 7 -4 24 18 20 13 49 -9 49 -8 0 -22 -9 -32 -20 -23 -26 -50 -25 -119 1
-53 21 -57 24 -71 72 -19 65 -19 101 2 159 14 39 14 49 4 62 -19 23 -37 20
-60 -9z"/>
<path d="M10358 7296 c-50 -55 -57 -76 -35 -95 11 -8 21 0 48 37 48 66 61 91
54 102 -10 16 -17 11 -67 -44z"/>
<path d="M7336 7276 c-23 -39 -26 -56 -26 -131 0 -49 7 -110 15 -140 20 -66
68 -135 95 -135 27 0 25 15 -9 58 -39 49 -61 129 -61 219 0 73 15 116 47 136
22 14 15 37 -11 37 -18 0 -31 -11 -50 -44z"/>
<path d="M9205 7248 c-11 -6 -50 -40 -87 -75 -40 -38 -78 -66 -96 -69 -32 -6
-49 -29 -31 -40 16 -10 60 5 100 34 66 49 160 142 154 152 -8 13 -15 12 -40
-2z"/>
<path d="M6347 7173 c-14 -21 -36 -59 -48 -85 -23 -48 -23 -48 -6 -134 18 -95
60 -194 101 -236 20 -20 37 -28 64 -29 76 -1 102 -18 129 -86 28 -70 65 -116
91 -111 26 5 26 32 -2 72 -13 20 -32 59 -41 86 -16 47 -15 55 5 164 12 62 20
124 18 137 -4 30 -42 38 -52 12 -6 -14 -46 -206 -46 -217 0 -2 -28 2 -62 8
-62 11 -62 11 -90 66 -16 30 -36 92 -45 136 l-17 81 41 69 c31 52 39 73 32 86
-15 29 -44 21 -72 -19z"/>
<path d="M10890 7162 c0 -17 -10 -52 -22 -77 -17 -34 -20 -50 -12 -62 20 -32
29 -22 52 54 l23 76 -20 21 -21 20 0 -32z"/>
<path d="M8066 7145 c-10 -8 -43 -20 -73 -26 -57 -13 -72 -24 -55 -41 8 -8 15
-8 24 -1 7 6 44 16 82 21 37 6 71 14 74 17 3 3 -3 14 -14 25 -17 16 -21 17
-38 5z"/>
<path d="M9464 6964 c-37 -39 -41 -52 -20 -60 15 -6 98 74 90 87 -11 18 -38 8
-70 -27z"/>
<path d="M3828 6946 c-28 -21 -21 -36 16 -36 39 0 53 14 36 35 -15 18 -30 18
-52 1z"/>
<path d="M10150 6819 c0 -12 -9 -34 -21 -50 -22 -32 -20 -59 6 -59 33 0 60
112 30 124 -10 4 -15 -1 -15 -15z"/>
<path d="M9111 6676 c-39 -40 -113 -82 -196 -110 -75 -26 -83 -52 -15 -49 114
6 368 193 261 193 -9 0 -32 -15 -50 -34z"/>
<path d="M10218 6513 c-9 -10 -23 -32 -32 -49 -13 -28 -14 -34 -1 -44 11 -9
20 -3 44 37 17 26 31 54 31 61 0 18 -24 15 -42 -5z"/>
<path d="M8294 6432 c-65 -49 -127 -98 -138 -110 -17 -20 -18 -22 -2 -28 11
-4 28 2 44 15 15 11 75 56 134 98 98 71 122 100 92 110 -6 2 -64 -36 -130 -85z"/>
<path d="M9431 6421 c-28 -30 -68 -118 -57 -128 13 -13 38 10 56 51 10 25 30
52 44 62 14 9 26 23 26 30 0 24 -41 15 -69 -15z"/>
<path d="M9642 6414 c-13 -19 -43 -49 -67 -66 -47 -33 -58 -58 -26 -58 40 0
162 125 146 150 -12 19 -30 10 -53 -26z"/>
<path d="M5915 6390 c-9 -42 3 -107 29 -155 16 -31 20 -50 16 -88 -3 -26 -4
-50 -1 -52 11 -12 85 -4 111 12 24 14 80 96 80 117 0 3 -35 6 -78 6 l-78 0
-18 38 c-11 23 -18 58 -17 95 0 50 -2 57 -18 57 -13 0 -22 -10 -26 -30z"/>
<path d="M7745 6300 c-23 -26 -13 -55 15 -40 22 12 42 44 33 54 -12 11 -30 6
-48 -14z"/>
<path d="M7500 6211 c-34 -11 -90 -40 -90 -48 0 -3 29 -3 63 -1 60 5 117 29
117 49 0 11 -55 10 -90 0z"/>
<path d="M6354 6176 c-4 -10 -18 -16 -38 -16 -17 0 -38 -4 -45 -9 -12 -8 -10
-12 11 -22 15 -6 33 -9 42 -6 19 7 51 55 43 64 -4 3 -9 -2 -13 -11z"/>
<path d="M9683 6133 c-54 -55 -61 -71 -42 -90 8 -8 25 4 65 45 56 60 62 73 42
89 -9 7 -28 -6 -65 -44z"/>
<path d="M9790 6088 c-23 -12 -53 -38 -68 -60 -14 -22 -58 -71 -98 -110 -87
-84 -104 -117 -80 -153 20 -31 51 -32 74 -3 42 53 136 148 147 148 7 0 38 19
69 43 38 29 55 48 53 61 -4 32 -22 29 -73 -14 -27 -22 -52 -40 -56 -40 -29 0
25 68 69 86 21 9 33 21 33 33 0 29 -24 32 -70 9z"/>
<path d="M4694 6029 c-41 -12 -62 -35 -45 -52 9 -9 13 -9 19 0 4 7 25 18 47
25 63 21 43 46 -21 27z"/>
<path d="M3670 5950 c0 -15 7 -20 25 -20 25 0 33 -14 15 -25 -15 -9 -12 -35 3
-35 43 0 64 83 25 94 -45 12 -68 7 -68 -14z"/>
<path d="M8042 5727 c-7 -8 -30 -22 -52 -32 -30 -14 -40 -24 -40 -42 0 -29 42
-73 70 -73 27 0 39 29 17 42 -25 14 -20 46 11 73 19 17 24 27 16 35 -8 8 -14
7 -22 -3z"/>
<path d="M5020 5634 c-24 -8 -51 -21 -59 -29 -13 -12 -12 -15 2 -21 24 -9 122
28 122 45 0 20 -13 21 -65 5z"/>
<path d="M4556 5609 c-59 -16 -156 -107 -156 -146 0 -6 -7 -17 -16 -24 -9 -8
-25 -33 -36 -58 l-18 -44 30 -48 c49 -75 99 -98 133 -61 23 26 21 36 -14 76
-25 29 -29 41 -24 65 5 23 13 30 41 36 54 10 84 26 84 46 0 28 -16 31 -72 14
-66 -19 -71 -19 -59 4 17 31 68 75 113 96 64 31 60 62 -6 44z"/>
<path d="M4068 5579 c-59 -30 -70 -47 -44 -68 11 -10 27 -6 74 18 62 31 78 51
59 70 -16 16 -25 14 -89 -20z"/>
<path d="M8631 5524 c-17 -14 -31 -30 -31 -34 0 -14 64 8 78 27 29 40 -2 45
-47 7z"/>
<path d="M5370 5533 c0 -5 -14 -16 -31 -26 -26 -14 -29 -20 -19 -32 29 -35
103 7 86 50 -5 15 -36 21 -36 8z"/>
<path d="M5095 5491 c-44 -20 -82 -65 -64 -77 6 -3 8 -17 5 -29 -5 -20 -1 -25
29 -35 40 -13 62 -6 45 15 -9 11 6 22 77 57 48 24 89 48 91 54 3 13 -71 34
-115 34 -15 0 -46 -9 -68 -19z"/>
<path d="M4765 5462 c-37 -57 -43 -119 -13 -162 37 -54 100 -96 190 -125 144
-46 133 -38 145 -113 15 -96 36 -140 75 -158 18 -8 49 -26 68 -40 32 -24 41
-26 107 -21 53 4 86 13 123 33 66 36 82 54 46 54 -26 0 -40 25 -36 66 8 71 -4
77 -77 39 -69 -35 -182 -75 -198 -69 -20 8 -35 59 -42 137 -7 79 -5 77 -143
122 -108 35 -137 50 -177 88 -39 37 -41 59 -9 112 44 73 -12 108 -59 37z"/>
<path d="M7675 5415 c-22 -8 -53 -28 -69 -46 -23 -26 -27 -38 -22 -67 6 -42
19 -57 41 -48 13 4 15 13 11 32 -4 14 -4 34 -1 44 8 25 65 50 113 50 45 0 60
13 42 35 -15 19 -63 18 -115 0z"/>
<path d="M8414 5249 c-16 -5 -41 -20 -54 -34 l-23 -25 24 0 c44 0 95 20 119
45 l23 25 -29 -1 c-16 0 -43 -5 -60 -10z"/>
<path d="M4185 5062 c-3 -3 -5 -18 -5 -34 0 -25 3 -28 35 -28 32 0 35 3 35 29
0 24 -5 29 -30 33 -17 3 -32 2 -35 0z"/>
<path d="M6395 4913 c-43 -25 -100 -55 -127 -66 -48 -20 -69 -50 -50 -69 7 -7
19 -4 38 11 15 11 32 21 37 21 22 0 197 111 197 125 0 28 -18 23 -95 -22z"/>
<path d="M4794 4929 c-11 -19 -6 -87 10 -118 21 -39 77 -81 111 -84 42 -3 41
19 -3 47 -59 37 -82 71 -82 122 0 32 -4 44 -14 44 -8 0 -18 -5 -22 -11z"/>
<path d="M7019 4928 c-6 -68 90 -218 141 -218 35 0 30 18 -15 62 -29 27 -54
65 -70 103 -22 55 -53 85 -56 53z"/>
<path d="M6721 4749 c-11 -18 -23 -51 -26 -74 -10 -69 33 -175 72 -175 18 0
17 8 -12 64 -30 59 -32 109 -6 159 15 30 16 38 5 48 -10 8 -18 3 -33 -22z"/>
<path d="M6937 4528 c-2 -7 7 -35 20 -63 12 -27 23 -55 23 -62 0 -18 19 -26
35 -13 16 13 9 43 -24 108 -21 41 -45 54 -54 30z"/>
<path d="M5990 4415 l0 -65 29 0 c17 0 33 -4 36 -10 16 -26 23 -5 10 31 -8 23
-15 49 -15 59 0 19 -30 50 -48 50 -8 0 -12 -22 -12 -65z"/>
<path d="M7465 4436 c-17 -7 -36 -20 -44 -29 -12 -15 -9 -17 31 -17 31 0 50 6
61 18 36 39 11 54 -48 28z"/>
<path d="M6298 4279 c-26 -14 -22 -25 12 -39 39 -16 74 -6 88 25 11 25 11 25
-36 25 -26 0 -55 -5 -64 -11z"/>
<path d="M7430 4268 c-25 -13 -79 -57 -121 -99 -125 -125 -200 -307 -170 -417
17 -66 40 -102 90 -139 50 -38 87 -43 96 -12 5 16 -5 31 -48 72 -62 58 -72 82
-65 162 10 123 147 315 263 370 61 28 69 37 60 65 -8 27 -48 26 -105 -2z"/>
<path d="M7856 4241 c-75 -102 -160 -156 -207 -131 -32 17 -48 -3 -24 -30 51
-57 176 11 274 149 17 24 28 47 25 52 -12 20 -34 7 -68 -40z"/>
<path d="M6284 4015 c-10 -25 3 -85 23 -107 28 -31 119 -73 213 -98 101 -26
132 -41 183 -87 31 -28 41 -32 57 -23 26 14 25 32 -4 67 -35 41 -107 77 -211
106 -94 25 -168 58 -182 79 -4 7 -12 27 -18 43 -11 34 -51 47 -61 20z"/>
<path d="M5950 3936 c0 -67 79 -123 118 -84 15 15 15 28 1 28 -7 0 -30 20 -53
45 -51 54 -66 57 -66 11z"/>
<path d="M6741 3927 c-26 -13 -49 -43 -40 -51 16 -16 119 32 119 56 0 12 -52
9 -79 -5z"/>
<path d="M7668 3809 c-10 -5 -32 -31 -49 -56 -52 -76 -63 -83 -101 -73 -25 8
-36 6 -47 -5 -20 -19 -5 -34 44 -45 24 -5 46 -4 62 3 27 12 123 138 123 161 0
21 -12 26 -32 15z"/>
<path d="M9328 2193 c-29 -33 -85 -128 -173 -293 -94 -175 -142 -253 -197
-311 -35 -38 -115 -95 -123 -88 -2 3 34 83 81 179 134 274 154 333 119 346
-22 9 -42 -12 -56 -54 -6 -20 -67 -153 -136 -295 -68 -143 -123 -261 -120
-263 2 -2 30 1 62 7 167 31 261 132 449 486 47 90 102 188 122 218 30 45 35
57 24 70 -16 20 -33 19 -52 -2z"/>
<path d="M4521 1956 c-6 -7 -25 -66 -41 -130 -17 -65 -38 -132 -47 -149 l-16
-32 -9 25 c-6 16 -6 54 2 109 9 68 9 87 -2 97 -33 33 -57 -33 -58 -160 0 -57
5 -77 25 -113 14 -23 29 -43 33 -43 10 0 66 70 84 105 9 17 28 80 42 140 15
61 29 118 32 127 7 23 -30 43 -45 24z"/>
<path d="M4670 1903 c0 -52 16 -67 42 -41 26 26 14 71 -20 76 -19 3 -22 -1
-22 -35z"/>
<path d="M10403 1831 c-64 -73 -71 -95 -45 -131 27 -36 28 -70 1 -155 -11 -37
-24 -85 -27 -108 -6 -35 -11 -42 -31 -42 -22 0 -23 4 -25 80 -3 89 -23 145
-60 165 -53 28 -84 -26 -51 -91 12 -22 15 -56 13 -145 l-3 -117 -45 38 -45 38
-3 -179 c-2 -170 -6 -193 -33 -194 -17 0 -79 174 -79 225 0 57 -47 94 -78 63
-30 -30 -4 -168 53 -283 53 -109 51 -108 113 -94 49 12 53 11 77 -11 14 -13
29 -40 35 -59 11 -40 13 -141 4 -165 -9 -24 -55 -20 -139 14 -96 38 -110 38
-131 -2 -9 -18 -30 -52 -47 -75 -17 -24 -28 -45 -26 -47 2 -3 24 1 48 7 38 10
44 10 57 -8 24 -32 16 -44 -38 -60 -70 -21 -92 -19 -124 9 l-28 23 20 101 c22
115 17 145 -25 140 -33 -4 -46 -32 -64 -135 -9 -48 -23 -92 -36 -109 -12 -16
-26 -57 -33 -91 -10 -56 -14 -63 -50 -83 -22 -12 -42 -19 -46 -15 -4 4 -10 75
-13 158 -6 170 -17 210 -60 215 -43 5 -54 -19 -41 -96 6 -37 11 -110 10 -163
0 -118 15 -175 53 -195 40 -20 79 -17 135 11 27 14 52 25 57 25 12 0 7 -43 -8
-70 -23 -40 -18 -58 16 -65 25 -6 42 0 87 28 31 19 60 33 64 31 14 -9 9 -69
-8 -92 -15 -22 -14 -22 23 -22 24 0 56 11 88 30 28 16 53 30 56 30 10 0 30
-51 24 -61 -12 -18 58 -50 98 -45 57 7 97 39 206 167 74 87 109 120 135 129
39 13 47 35 16 43 -30 8 -11 48 33 69 20 10 41 27 47 38 9 17 21 20 70 20 52
0 62 -3 76 -25 11 -16 14 -34 9 -55 -8 -39 -100 -154 -143 -180 -39 -24 -51
-63 -27 -90 24 -26 51 -25 104 5 24 14 52 23 62 20 33 -11 86 21 114 69 15 25
40 57 56 71 l30 25 22 -21 c33 -32 81 -49 136 -49 72 0 195 -19 265 -40 33
-11 62 -17 65 -14 3 2 -3 29 -14 59 -10 30 -16 56 -14 58 2 2 30 13 63 25 52
18 60 19 74 6 10 -10 24 -13 41 -9 26 6 37 12 128 78 30 22 54 33 58 28 3 -6
1 -37 -6 -68 -17 -86 1 -133 58 -153 45 -15 60 -13 163 23 25 9 65 21 90 27
28 8 59 26 82 50 32 32 38 44 38 79 0 23 -5 51 -10 62 -10 18 -7 19 56 19 58
0 65 2 60 17 -4 9 -16 54 -28 101 -14 55 -32 100 -54 131 -54 75 -77 127 -64
150 19 37 11 83 -30 156 -22 40 -40 82 -40 94 0 11 -3 21 -7 21 -4 0 -35 -18
-69 -41 -74 -48 -124 -58 -178 -35 -21 9 -41 16 -43 16 -3 0 -3 -23 -1 -50 l3
-50 -75 -78 c-49 -51 -85 -99 -105 -141 -33 -70 -31 -70 -140 -39 -47 13 -53
18 -100 96 -27 45 -58 85 -68 88 -21 7 -47 -12 -47 -33 0 -15 81 -155 107
-185 17 -19 4 -53 -24 -62 -43 -13 -195 -24 -244 -17 -42 5 -128 36 -157 56
-1 1 -7 28 -13 60 -18 96 19 195 71 195 16 0 20 -7 20 -32 0 -54 11 -78 36
-84 44 -11 57 12 52 93 -3 40 -10 79 -17 87 -15 18 -81 30 -122 21 -47 -11
-95 -59 -115 -117 -13 -39 -15 -69 -10 -137 13 -172 13 -164 -14 -177 -30 -15
-80 -7 -80 11 0 8 -13 47 -30 88 -16 42 -30 82 -30 91 0 20 158 301 254 453
78 123 154 222 172 223 7 0 14 6 17 14 3 8 43 32 89 54 106 50 122 68 123 134
0 50 -1 52 -32 60 -18 5 -33 12 -33 17 0 12 -69 -2 -105 -21 -47 -25 -91 -78
-121 -143 -15 -33 -48 -85 -73 -115 -68 -84 -147 -209 -262 -413 -96 -171
-107 -187 -136 -193 -61 -12 -65 6 -27 122 14 44 42 101 63 129 59 80 80 119
83 156 3 28 -1 35 -18 37 -17 2 -24 -6 -37 -40 -9 -24 -39 -75 -67 -113 -28
-38 -53 -78 -56 -87 -4 -13 -16 -18 -44 -18 l-39 0 25 72 c41 119 46 160 27
218 -16 50 -16 52 16 166 18 63 31 124 28 135 -3 10 -1 19 4 19 30 0 50 121
28 163 -27 50 -44 48 -96 -12z m1428 -891 c36 -36 35 -39 -56 -138 -46 -50
-71 -70 -79 -63 -7 6 -26 4 -51 -5 -22 -7 -44 -9 -48 -5 -25 25 141 241 185
241 11 0 33 -13 49 -30z m222 -93 c51 -116 34 -193 -67 -297 -85 -87 -106
-118 -106 -150 0 -28 -31 -50 -72 -50 -18 0 -20 4 -15 39 3 22 12 54 21 72 9
18 16 39 16 46 0 8 27 48 61 88 63 76 72 107 32 113 -15 2 -35 -13 -74 -61
-53 -63 -89 -81 -89 -45 0 36 35 105 78 153 25 28 58 69 73 93 16 25 30 39 34
32 5 -7 17 -4 38 9 18 12 34 21 37 21 3 0 17 -29 33 -63z m-1513 -59 c0 -13
13 -54 29 -93 16 -38 28 -71 26 -73 -1 -1 -74 -3 -161 -3 -166 -1 -214 8 -214
38 1 55 24 73 132 103 26 7 55 21 64 31 13 14 31 19 71 19 48 0 53 -2 53 -22z
m885 -94 c21 -8 57 -14 80 -13 24 2 50 -3 58 -10 14 -11 14 -15 -3 -34 -71
-84 -102 -126 -112 -154 -9 -26 -21 -36 -57 -48 -24 -8 -46 -15 -48 -15 -2 0
-3 45 -3 100 0 59 -4 100 -10 100 -5 0 0 20 12 45 24 50 29 52 83 29z m-1351
-447 c8 -13 7 -24 -4 -44 -21 -37 -34 -38 -55 -6 -12 18 -14 28 -7 31 7 2 12
10 12 17 0 28 37 29 54 2z"/>
<path d="M4733 1686 c-36 -58 -39 -76 -21 -94 8 -8 18 0 40 35 41 63 49 88 35
102 -17 17 -19 15 -54 -43z"/>
<path d="M3026 1664 c-9 -8 -16 -18 -16 -20 0 -3 16 -44 36 -92 45 -106 58
-162 37 -162 -28 0 -90 40 -161 106 -68 62 -75 66 -90 51 -14 -15 -11 -21 44
-72 76 -72 137 -115 180 -126 28 -8 39 -20 61 -65 43 -88 114 -139 306 -219
82 -34 151 -93 167 -141 12 -34 19 -104 12 -104 -2 0 -16 8 -30 19 -42 29
-216 126 -227 126 -6 0 -24 10 -40 21 -85 60 -139 67 -133 16 2 -19 15 -33 43
-50 74 -42 72 -40 52 -56 -23 -17 -34 -14 -111 36 -33 21 -67 38 -76 38 -21 0
-50 -31 -50 -54 0 -13 -5 -16 -22 -10 -13 3 -30 12 -38 20 -23 19 -86 44 -113
44 -33 0 -51 -38 -45 -94 3 -25 4 -46 1 -46 -35 0 -312 179 -306 198 3 6 -3
12 -12 12 -33 0 -74 31 -124 94 -53 66 -102 96 -160 96 -24 0 -29 -5 -33 -28
-7 -49 10 -88 62 -136 63 -59 240 -145 240 -117 0 6 48 -21 108 -61 124 -82
189 -113 257 -123 l48 -8 -6 39 c-3 22 -9 57 -13 78 l-7 40 59 -34 c32 -18 76
-53 98 -77 21 -24 80 -68 131 -98 51 -30 109 -73 129 -96 35 -38 37 -44 35
-97 l-3 -57 125 -22 c204 -35 326 -27 417 29 l34 21 -4 76 c-4 97 -27 142
-122 241 -58 60 -76 86 -90 132 -33 104 -95 158 -272 233 -175 75 -219 121
-235 244 -7 63 -64 220 -92 259 -13 16 -32 15 -51 -4z"/>
<path d="M4535 1608 c-2 -7 -11 -41 -20 -75 -8 -34 -40 -122 -69 -195 -87
-215 -83 -208 -111 -208 -22 0 -24 4 -27 53 -3 46 1 57 30 97 38 51 39 88 4
101 -20 8 -29 4 -52 -21 -31 -33 -43 -36 -83 -17 -22 10 -33 31 -64 122 -27
78 -43 111 -56 113 -29 6 -31 -27 -6 -102 42 -125 41 -116 8 -116 -23 0 -32 7
-49 40 -25 48 -53 66 -70 45 -16 -19 -6 -58 28 -110 21 -32 26 -48 22 -79 -3
-22 -13 -44 -23 -50 -23 -14 -38 6 -102 125 -25 48 -52 92 -60 99 -20 17 -50
8 -53 -16 -3 -22 96 -214 129 -250 10 -11 19 -31 19 -45 0 -29 35 -88 64 -109
26 -19 88 -42 95 -35 2 3 -1 22 -8 41 -17 47 -4 61 37 40 65 -34 84 -76 106
-246 9 -63 24 -131 35 -152 17 -34 17 -39 3 -47 -8 -5 -12 -15 -9 -24 8 -22
-82 -57 -147 -57 -29 0 -57 -5 -64 -12 -19 -19 -14 -46 13 -64 31 -20 100 -14
179 17 28 10 68 19 89 19 21 0 75 9 120 21 86 21 94 20 177 -15 10 -4 20 4 31
22 21 38 70 73 145 104 l61 26 22 -29 c12 -16 28 -29 36 -29 8 0 21 -15 29
-32 7 -18 28 -46 45 -63 29 -27 39 -30 94 -29 45 1 77 8 117 27 39 19 71 27
110 27 109 0 161 -30 163 -93 l1 -35 80 -12 c273 -39 401 -69 446 -101 34 -26
64 -22 68 10 3 16 -5 30 -23 45 l-26 21 32 45 c42 60 66 78 115 86 51 7 67 0
237 -113 146 -97 244 -140 345 -149 l70 -7 13 39 c24 68 7 339 -23 357 -12 8
-21 7 -32 -2 -18 -15 -20 -77 -6 -185 4 -37 6 -84 3 -102 -6 -33 -6 -34 -47
-28 -72 11 -153 50 -294 142 -153 99 -173 113 -219 146 -18 13 -50 26 -73 30
-24 4 -52 17 -67 32 -25 25 -25 26 -7 44 11 10 30 37 44 59 13 23 31 41 40 41
26 0 63 67 68 123 3 42 0 57 -18 80 -26 33 -65 36 -95 7 l-22 -21 -13 30 c-16
40 -34 54 -59 46 -33 -10 -33 -38 -1 -109 28 -64 29 -69 15 -102 -12 -30 -19
-35 -42 -32 -20 2 -33 13 -45 38 -10 19 -26 42 -37 50 -10 8 -21 28 -25 43 -7
31 -32 45 -49 28 -8 -8 -8 -22 0 -53 8 -31 8 -46 0 -60 -14 -22 -37 -24 -37
-3 0 35 -33 77 -73 96 -82 37 -242 15 -331 -46 -20 -14 -39 -25 -42 -25 -2 0
-28 16 -58 35 -76 51 -146 75 -240 82 -57 4 -89 12 -108 26 -17 13 -36 18 -53
14 -26 -4 -27 -3 -21 32 9 56 -10 110 -40 117 -45 12 -73 -11 -109 -89 l-33
-72 -86 -42 c-48 -24 -89 -43 -91 -43 -3 0 -2 30 1 68 5 55 3 70 -9 81 -14 11
-20 9 -40 -15 -25 -29 -47 -26 -47 7 0 11 -4 17 -10 14 -15 -9 -13 -4 30 89
78 170 153 393 143 424 -3 6 -11 12 -19 12 -8 0 -17 -6 -19 -12z m276 -480 c1
-7 3 -24 4 -36 2 -17 -6 -29 -28 -42 -44 -27 -50 -16 -22 41 24 47 44 63 46
37z m162 -243 c4 -8 58 -55 121 -105 108 -86 114 -92 118 -131 4 -42 3 -42
-47 -65 -72 -34 -110 -32 -130 6 -15 30 -15 32 14 60 16 17 38 30 48 30 10 0
-16 18 -57 40 -113 59 -142 104 -104 158 18 26 30 28 37 7z"/>
<path d="M4624 1455 c-8 -21 -27 -56 -41 -79 -37 -57 -56 -125 -42 -143 15
-17 39 1 39 30 0 11 21 58 46 104 25 46 44 91 42 100 -6 31 -28 25 -44 -12z"/>
<path d="M3726 1077 c-29 -22 -11 -51 63 -105 40 -30 73 -62 80 -80 19 -44 61
-53 75 -16 15 38 -29 95 -134 173 -62 46 -60 46 -84 28z"/>
<path d="M7034 844 c-8 -4 -9 -17 -2 -47 6 -28 5 -96 -3 -202 -14 -190 -9
-244 31 -288 24 -28 35 -32 77 -32 26 0 75 10 109 23 53 20 62 28 74 60 7 20
33 71 57 112 57 99 68 138 46 162 -23 25 -45 23 -88 -12 -46 -37 -72 -38 -85
-4 -8 19 -5 34 10 64 23 44 27 100 8 100 -7 0 -44 16 -82 35 -64 32 -119 43
-152 29z"/>
<path d="M12235 756 l-30 -13 54 -17 c30 -9 63 -16 72 -16 29 0 34 22 9 42
-26 21 -63 23 -105 4z"/>
<path d="M9204 616 c-3 -9 1 -34 9 -55 9 -21 23 -79 32 -127 26 -139 51 -180
84 -140 8 10 9 21 1 41 -6 16 -19 73 -30 128 -11 54 -28 113 -38 130 -20 36
-49 47 -58 23z"/>
<path d="M7553 568 c-25 -28 -50 -76 -108 -213 -50 -117 -51 -121 -31 -128 21
-8 29 5 85 136 28 65 64 137 79 160 41 60 21 95 -25 45z"/>
<path d="M7980 535 c-18 -22 -7 -39 47 -76 26 -18 117 -91 201 -161 180 -151
242 -193 336 -226 54 -18 85 -23 133 -20 40 2 63 0 63 -7 0 -14 89 -35 180
-42 l76 -6 19 44 c34 75 27 164 -22 289 -23 58 -47 124 -52 146 l-11 42 -38
-9 c-34 -7 -55 -6 -106 8 -16 4 -18 0 -14 -33 4 -32 0 -42 -23 -61 -60 -51
-91 -177 -66 -267 l8 -29 -51 5 c-98 10 -196 71 -440 278 -155 132 -211 160
-240 125z m839 -172 c-6 -15 -7 -55 -3 -93 5 -55 3 -69 -11 -83 -62 -62 -72
80 -12 170 27 40 40 43 26 6z"/>
<path d="M9050 505 c0 -48 25 -122 50 -147 36 -35 79 -38 81 -5 4 67 -11 91
-80 134 -35 22 -51 28 -51 18z"/>
<path d="M7987 392 c-8 -39 8 -101 30 -117 10 -8 29 -15 42 -15 21 0 23 3 16
38 -8 46 -33 90 -61 109 -20 13 -22 12 -27 -15z"/>
<path d="M7760 273 c0 -9 -9 -35 -20 -57 -24 -51 -18 -86 16 -86 13 0 28 9 34
19 13 25 13 82 0 115 -11 29 -30 35 -30 9z"/>
</g>
</svg>
